<?xml version="1.0" encoding="UTF-8" standalone="no"?>
<!DOCTYPE svg PUBLIC "-//W3C//DTD SVG 1.1//EN" "http://www.w3.org/Graphics/SVG/1.1/DTD/svg11.dtd">
<!-- Generated by Microsoft Visio, SVG Export svg_hex_all.svg Page-1 -->
<svg xmlns="http://www.w3.org/2000/svg" xmlns:xlink="http://www.w3.org/1999/xlink" xmlns:ev="http://www.w3.org/2001/xml-events"
		xmlns:v="http://schemas.microsoft.com/visio/2003/SVGExtensions/" width="14.6628in" height="16.1186in"
		viewBox="0 0 1055.72 1160.54" xml:space="preserve" color-interpolation-filters="sRGB" class="st11">
	<v:documentProperties v:langID="1033" v:metric="true" v:viewMarkup="false">
		<v:userDefs>
			<v:ud v:nameU="msvSubprocessMaster" v:prompt="" v:val="VT4(Rectangle)"/>
			<v:ud v:nameU="msvNoAutoConnect" v:val="VT0(1):26"/>
		</v:userDefs>
	</v:documentProperties>

	<style type="text/css">
	<![CDATA[
		.st1 {fill:#ffcc00;fill-opacity:0.5;stroke:#000000;stroke-width:2}
		.st1:hover{fill-opacity:1;transition:fill-opacity 0.3s ease}
		.st2 {fill:#000000;font-family:Calibri;font-size:1.99999em}
		.st3 {fill:#000000;stroke:#000000;stroke-width:2}
		.st4 {fill:#feffff;font-family:Calibri;font-size:2.50001em;font-weight:bold}
		.st5 {fill:#00ffff;fill-opacity:0.5;stroke:#000000;stroke-width:2}
		.st5:hover {fill-opacity:1;transition:fill-opacity 0.3s ease}
		.st6 {font-size:1em}
		.st7 {fill:#ff66ff;fill-opacity:0.5;stroke:#000000;stroke-width:2}
		.st7:hover {fill-opacity:1;transition:fill-opacity 0.3s ease}
		.st8 {fill:#00b050;fill-opacity:0.5;stroke:#000000;stroke-width:2}
		.st8:hover {fill-opacity:1;transition:fill-opacity 0.3s ease}
		.st9 {fill:#ff0000;fill-opacity:0.5;stroke:#000000;stroke-width:2}
		.st9:hover {fill-opacity:1;transition:fill-opacity 0.3s ease}
		.st10 {fill:#3333ff;fill-opacity:0.5;stroke:#000000;stroke-width:2}
		.st10:hover {fill-opacity:1;transition:fill-opacity 0.3s ease}
		.st11 {fill:none;fill-rule:evenodd;font-size:12px;overflow:visible;stroke-linecap:square;stroke-miterlimit:3}
		
		@media only screen and (max-width:767px){
			.st1, .st3, .st5, .st7, .st8, .st9, .st10 {stroke: #fff}
			};
	]]>
	</style>

	<g v:mID="0" v:index="1" v:groupContext="foregroundPage">
		<v:userDefs>
			<v:ud v:nameU="msvThemeOrder" v:val="VT0(0):26"/>
		</v:userDefs>
		<title>Page-1</title>
		<v:pageProperties v:drawingScale="0.0393701" v:pageScale="0.0393701" v:drawingUnits="24" v:shadowOffsetX="8.50394"
				v:shadowOffsetY="-8.50394"/>
		<g id="shape1-1" v:mID="1" v:groupContext="shape" transform="translate(447.364,-339.405)">
			<title>Hexagon.102</title>
			<desc>Finance</desc>
			<v:userDefs>
				<v:ud v:nameU="visVersion" v:val="VT0(15):26"/>
			</v:userDefs>
			<v:textBlock v:margins="rect(4,4,4,4)" v:tabSpace="42.5197"/>
			<v:textRect cx="80.2887" cy="1080.25" width="160.58" height="160.577"/>
			<path d="M126.64 999.96 L33.93 999.96 L-12.42 1080.25 L33.93 1160.54 L126.64 1160.54 L173 1080.25 L126.64 999.96 Z"
					class="st1"/>
			<text x="42.62" y="1087.45" class="st2" v:langID="1033"><v:paragraph v:horizAlign="1"/><v:tabList/>Finance</text>		</g>
		<g id="shape2-4" v:mID="2" v:groupContext="shape" transform="translate(447.364,-499.982)">
			<title>Hexagon.99</title>
			<desc>Automate</desc>
			<v:userDefs>
				<v:ud v:nameU="visVersion" v:val="VT0(15):26"/>
			</v:userDefs>
			<v:textBlock v:margins="rect(4,4,4,4)" v:tabSpace="42.5197"/>
			<v:textRect cx="80.2887" cy="1080.25" width="160.58" height="160.577"/>
			<path d="M126.64 999.96 L33.93 999.96 L-12.42 1080.25 L33.93 1160.54 L126.64 1160.54 L173 1080.25 L126.64 999.96 Z"
					class="st3"/>
			<text x="6.89" y="1089.25" class="st4" v:langID="1033"><v:paragraph v:horizAlign="1"/><v:tabList/>AUTOMATE</text>		</g>
		<g id="shape3-7" v:mID="3" v:groupContext="shape" transform="translate(586.681,-580.271)">
			<title>Hexagon.100</title>
			<desc>Machine Learning</desc>
			<v:userDefs>
				<v:ud v:nameU="visVersion" v:val="VT0(15):26"/>
			</v:userDefs>
			<v:textBlock v:margins="rect(4,4,4,4)" v:tabSpace="42.5197"/>
			<v:textRect cx="80.2887" cy="1080.25" width="160.58" height="160.577"/>
			<path d="M126.64 999.96 L33.93 999.96 L-12.42 1080.25 L33.93 1160.54 L126.64 1160.54 L173 1080.25 L126.64 999.96 Z"
					class="st5"/>
			<text x="37.87" y="1073.05" class="st2" v:langID="1033"><v:paragraph v:horizAlign="1"/><v:tabList/>Machine <tspan
						x="38.33" dy="1.2em" class="st6">Learning</tspan></text>		</g>
		<g id="shape4-11" v:mID="4" v:groupContext="shape" transform="translate(308.466,-580.271)">
			<title>Hexagon.101</title>
			<desc>Processes</desc>
			<v:userDefs>
				<v:ud v:nameU="visVersion" v:val="VT0(15):26"/>
			</v:userDefs>
			<v:textBlock v:margins="rect(4,4,4,4)" v:tabSpace="42.5197"/>
			<v:textRect cx="80.2887" cy="1080.25" width="160.58" height="160.577"/>
			<path d="M126.64 999.96 L33.93 999.96 L-12.42 1080.25 L33.93 1160.54 L126.64 1160.54 L173 1080.25 L126.64 999.96 Z"
					class="st7"/>
			<text x="32.48" y="1087.45" class="st2" v:langID="1033"><v:paragraph v:horizAlign="1"/><v:tabList/>Processes</text>		</g>
		<g id="shape5-14" v:mID="5" v:groupContext="shape" transform="translate(586.681,-419.694)">
			<title>Hexagon.103</title>
			<desc>Economics</desc>
			<v:userDefs>
				<v:ud v:nameU="visVersion" v:val="VT0(15):26"/>
			</v:userDefs>
			<v:textBlock v:margins="rect(4,4,4,4)" v:tabSpace="42.5197"/>
			<v:textRect cx="80.2887" cy="1080.25" width="160.58" height="160.577"/>
			<path d="M126.64 999.96 L33.93 999.96 L-12.42 1080.25 L33.93 1160.54 L126.64 1160.54 L173 1080.25 L126.64 999.96 Z"
					class="st8"/>
			<text x="28.29" y="1087.45" class="st2" v:langID="1033"><v:paragraph v:horizAlign="1"/><v:tabList/>Economics</text>		</g>
		<g id="shape6-17" v:mID="6" v:groupContext="shape" transform="translate(308.466,-419.694)">
			<title>Hexagon.104</title>
			<desc>Business</desc>
			<v:userDefs>
				<v:ud v:nameU="visVersion" v:val="VT0(15):26"/>
			</v:userDefs>
			<v:textBlock v:margins="rect(4,4,4,4)" v:tabSpace="42.5197"/>
			<v:textRect cx="80.2887" cy="1080.25" width="160.58" height="160.577"/>
			<path d="M126.64 999.96 L33.93 999.96 L-12.42 1080.25 L33.93 1160.54 L126.64 1160.54 L173 1080.25 L126.64 999.96 Z"
					class="st9"/>
			<text x="38.35" y="1087.45" class="st2" v:langID="1033"><v:paragraph v:horizAlign="1"/><v:tabList/>Business</text>		</g>
		<g id="shape7-20" v:mID="7" v:groupContext="shape" transform="translate(447.364,-660.56)">
			<title>Hexagon.105</title>
			<desc>Data</desc>
			<v:userDefs>
				<v:ud v:nameU="visVersion" v:val="VT0(15):26"/>
			</v:userDefs>
			<v:textBlock v:margins="rect(4,4,4,4)" v:tabSpace="42.5197"/>
			<v:textRect cx="80.2887" cy="1080.25" width="160.58" height="160.577"/>
			<path d="M126.64 999.96 L33.93 999.96 L-12.42 1080.25 L33.93 1160.54 L126.64 1160.54 L173 1080.25 L126.64 999.96 Z"
					class="st10"/>
			<text x="57.39" y="1087.45" class="st2" v:langID="1033"><v:paragraph v:horizAlign="1"/><v:tabList/>Data</text>		</g>
		<g id="shape8-23" v:mID="8" v:groupContext="shape" transform="translate(725.159,-339.405)">
			<title>Hexagon.109</title>
			<desc>Macro Forecasts</desc>
			<v:userDefs>
				<v:ud v:nameU="visVersion" v:val="VT0(15):26"/>
			</v:userDefs>
			<v:textBlock v:margins="rect(4,4,4,4)" v:tabSpace="42.5197"/>
			<v:textRect cx="80.2887" cy="1080.25" width="160.58" height="160.577"/>
			<path d="M126.64 999.96 L33.93 999.96 L-12.42 1080.25 L33.93 1160.54 L126.64 1160.54 L173 1080.25 L126.64 999.96 Z"
					class="st8"/>
			<text x="48.69" y="1073.05" class="st2" v:langID="1033"><v:paragraph v:horizAlign="1"/><v:tabList/>Macro <tspan
						x="34.06" dy="1.2em" class="st6">Forecasts</tspan></text>		</g>
		<g id="shape9-27" v:mID="9" v:groupContext="shape" transform="translate(725.159,-660.56)">
			<title>Hexagon.110</title>
			<desc>Predictions</desc>
			<v:userDefs>
				<v:ud v:nameU="visVersion" v:val="VT0(15):26"/>
			</v:userDefs>
			<v:textBlock v:margins="rect(4,4,4,4)" v:tabSpace="42.5197"/>
			<v:textRect cx="80.2887" cy="1080.25" width="160.58" height="160.577"/>
			<path d="M126.64 999.96 L33.93 999.96 L-12.42 1080.25 L33.93 1160.54 L126.64 1160.54 L173 1080.25 L126.64 999.96 Z"
					class="st5"/>
			<text x="25.7" y="1087.45" class="st2" v:langID="1033"><v:paragraph v:horizAlign="1"/><v:tabList/>Predictions</text>		</g>
		<g id="shape10-30" v:mID="10" v:groupContext="shape" transform="translate(447.364,-821.137)">
			<title>Hexagon.111</title>
			<desc>SQL Procedures</desc>
			<v:userDefs>
				<v:ud v:nameU="visVersion" v:val="VT0(15):26"/>
			</v:userDefs>
			<v:textBlock v:margins="rect(4,4,4,4)" v:tabSpace="42.5197"/>
			<v:textRect cx="80.2887" cy="1080.25" width="160.58" height="160.577"/>
			<path d="M126.64 999.96 L33.93 999.96 L-12.42 1080.25 L33.93 1160.54 L126.64 1160.54 L173 1080.25 L126.64 999.96 Z"
					class="st10"/>
			<text x="61.66" y="1073.05" class="st2" v:langID="1033"><v:paragraph v:horizAlign="1"/><v:tabList/>SQL <tspan x="25.08"
						dy="1.2em" class="st6">Procedures</tspan></text>		</g>
		<g id="shape11-34" v:mID="11" v:groupContext="shape" transform="translate(169.568,-660.56)">
			<title>Hexagon.112</title>
			<desc>Flowchart Mapping</desc>
			<v:userDefs>
				<v:ud v:nameU="visVersion" v:val="VT0(15):26"/>
			</v:userDefs>
			<v:textBlock v:margins="rect(4,4,4,4)" v:tabSpace="42.5197"/>
			<v:textRect cx="80.2887" cy="1080.25" width="160.58" height="160.577"/>
			<path d="M126.64 999.96 L33.93 999.96 L-12.42 1080.25 L33.93 1160.54 L126.64 1160.54 L173 1080.25 L126.64 999.96 Z"
					class="st7"/>
			<text x="31.79" y="1073.05" class="st2" v:langID="1033"><v:paragraph v:horizAlign="1"/><v:tabList/>Flowchart <tspan
						x="36.96" dy="1.2em" class="st6">Mapping</tspan></text>		</g>
		<g id="shape12-38" v:mID="12" v:groupContext="shape" transform="translate(447.364,-178.827)">
			<title>Hexagon.113</title>
			<desc>Portfolio Management</desc>
			<v:userDefs>
				<v:ud v:nameU="visVersion" v:val="VT0(15):26"/>
			</v:userDefs>
			<v:textBlock v:margins="rect(4,4,4,4)" v:tabSpace="42.5197"/>
			<v:textRect cx="80.2887" cy="1080.25" width="160.58" height="160.577"/>
			<path d="M126.64 999.96 L33.93 999.96 L-12.42 1080.25 L33.93 1160.54 L126.64 1160.54 L173 1080.25 L126.64 999.96 Z"
					class="st1"/>
			<text x="37.73" y="1073.05" class="st2" v:langID="1033"><v:paragraph v:horizAlign="1"/><v:tabList/>Portfolio <tspan
						x="14.73" dy="1.2em" class="st6">Management</tspan></text>		</g>
		<g id="shape13-42" v:mID="13" v:groupContext="shape" transform="translate(169.568,-339.405)">
			<title>Hexagon.114</title>
			<desc>Workflow Optimization</desc>
			<v:userDefs>
				<v:ud v:nameU="visVersion" v:val="VT0(15):26"/>
			</v:userDefs>
			<v:textBlock v:margins="rect(4,4,4,4)" v:tabSpace="42.5197"/>
			<v:textRect cx="80.2887" cy="1080.25" width="160.58" height="160.577"/>
			<path d="M126.64 999.96 L33.93 999.96 L-12.42 1080.25 L33.93 1160.54 L126.64 1160.54 L173 1080.25 L126.64 999.96 Z"
					class="st9"/>
			<text x="32.32" y="1073.05" class="st2" v:langID="1033"><v:paragraph v:horizAlign="1"/><v:tabList/>Workflow<v:newlineChar/><tspan
						x="17.03" dy="1.2em" class="st6">Optimization</tspan></text>		</g>
		<g id="shape14-46" v:mID="14" v:groupContext="shape" transform="translate(864.476,-580.271)">
			<title>Hexagon.116</title>
			<desc>Natural Language Processing</desc>
			<v:userDefs>
				<v:ud v:nameU="visVersion" v:val="VT0(15):26"/>
			</v:userDefs>
			<v:textBlock v:margins="rect(4,4,4,4)" v:tabSpace="42.5197"/>
			<v:textRect cx="80.2887" cy="1080.25" width="160.58" height="160.577"/>
			<path d="M126.64 999.96 L33.93 999.96 L-12.42 1080.25 L33.93 1160.54 L126.64 1160.54 L173 1080.25 L126.64 999.96 Z"
					class="st5"/>
			<text x="43.78" y="1058.65" class="st2" v:langID="1033"><v:paragraph v:horizAlign="1"/><v:tabList/>Natural <tspan
						x="33.87" dy="1.2em" class="st6">Language </tspan><tspan x="28.44" dy="1.2em" class="st6">Processing</tspan></text>		</g>
		<g id="shape15-51" v:mID="15" v:groupContext="shape" transform="translate(864.476,-740.848)">
			<title>Hexagon.117</title>
			<desc>Label Generators</desc>
			<v:userDefs>
				<v:ud v:nameU="visVersion" v:val="VT0(15):26"/>
			</v:userDefs>
			<v:textBlock v:margins="rect(4,4,4,4)" v:tabSpace="42.5197"/>
			<v:textRect cx="80.2887" cy="1080.25" width="160.58" height="160.577"/>
			<path d="M126.64 999.96 L33.93 999.96 L-12.42 1080.25 L33.93 1160.54 L126.64 1160.54 L173 1080.25 L126.64 999.96 Z"
					class="st5"/>
			<text x="54.47" y="1073.05" class="st2" v:langID="1033"><v:paragraph v:horizAlign="1"/><v:tabList/>Label <tspan
						x="25.32" dy="1.2em" class="st6">Generators</tspan></text>		</g>
		<g id="shape16-55" v:mID="16" v:groupContext="shape" transform="translate(864.476,-419.694)">
			<title>Hexagon.118</title>
			<desc>Operations &#38; Research</desc>
			<v:userDefs>
				<v:ud v:nameU="visVersion" v:val="VT0(15):26"/>
			</v:userDefs>
			<v:textBlock v:margins="rect(4,4,4,4)" v:tabSpace="42.5197"/>
			<v:textRect cx="80.2887" cy="1080.25" width="160.58" height="160.577"/>
			<path d="M126.64 999.96 L33.93 999.96 L-12.42 1080.25 L33.93 1160.54 L126.64 1160.54 L173 1080.25 L126.64 999.96 Z"
					class="st8"/>
			<text x="15.14" y="1073.05" class="st2" v:langID="1033"><v:paragraph v:horizAlign="1"/><v:tabList/>Operations &#38; <tspan
						x="35.83" dy="1.2em" class="st6">Research</tspan></text>		</g>
		<g id="shape17-59" v:mID="17" v:groupContext="shape" transform="translate(864.476,-259.116)">
			<title>Hexagon.119</title>
			<desc>Policy Analysis</desc>
			<v:userDefs>
				<v:ud v:nameU="visVersion" v:val="VT0(15):26"/>
			</v:userDefs>
			<v:textBlock v:margins="rect(4,4,4,4)" v:tabSpace="42.5197"/>
			<v:textRect cx="80.2887" cy="1080.25" width="160.58" height="160.577"/>
			<path d="M126.64 999.96 L33.93 999.96 L-12.42 1080.25 L33.93 1160.54 L126.64 1160.54 L173 1080.25 L126.64 999.96 Z"
					class="st8"/>
			<text x="9.71" y="1087.45" class="st2" v:langID="1033"><v:paragraph v:horizAlign="1"/><v:tabList/>Policy Analysis</text>		</g>
		<g id="shape18-62" v:mID="18" v:groupContext="shape" transform="translate(725.159,-178.827)">
			<title>Hexagon.120</title>
			<desc>Time Series</desc>
			<v:userDefs>
				<v:ud v:nameU="visVersion" v:val="VT0(15):26"/>
			</v:userDefs>
			<v:textBlock v:margins="rect(4,4,4,4)" v:tabSpace="42.5197"/>
			<v:textRect cx="80.2887" cy="1080.25" width="160.58" height="160.577"/>
			<path d="M126.64 999.96 L33.93 999.96 L-12.42 1080.25 L33.93 1160.54 L126.64 1160.54 L173 1080.25 L126.64 999.96 Z"
					class="st8"/>
			<text x="24.33" y="1087.45" class="st2" v:langID="1033"><v:paragraph v:horizAlign="1"/><v:tabList/>Time Series</text>		</g>
		<g id="shape19-65" v:mID="19" v:groupContext="shape" transform="translate(725.159,-821.137)">
			<title>Hexagon.121</title>
			<desc>Classifications</desc>
			<v:userDefs>
				<v:ud v:nameU="visVersion" v:val="VT0(15):26"/>
			</v:userDefs>
			<v:textBlock v:margins="rect(4,4,4,4)" v:tabSpace="42.5197"/>
			<v:textRect cx="80.2887" cy="1080.25" width="160.58" height="160.577"/>
			<path d="M126.64 999.96 L33.93 999.96 L-12.42 1080.25 L33.93 1160.54 L126.64 1160.54 L173 1080.25 L126.64 999.96 Z"
					class="st5"/>
			<text x="11.91" y="1087.45" class="st2" v:langID="1033"><v:paragraph v:horizAlign="1"/><v:tabList/>Classifications</text>		</g>
		<g id="shape20-68" v:mID="20" v:groupContext="shape" transform="translate(309.385,-901.426)">
			<title>Hexagon.122</title>
			<desc>MetaData</desc>
			<v:userDefs>
				<v:ud v:nameU="visVersion" v:val="VT0(15):26"/>
			</v:userDefs>
			<v:textBlock v:margins="rect(4,4,4,4)" v:tabSpace="42.5197"/>
			<v:textRect cx="80.2887" cy="1080.25" width="160.58" height="160.577"/>
			<path d="M126.64 999.96 L33.93 999.96 L-12.42 1080.25 L33.93 1160.54 L126.64 1160.54 L173 1080.25 L126.64 999.96 Z"
					class="st10"/>
			<text x="31.39" y="1087.45" class="st2" v:langID="1033"><v:paragraph v:horizAlign="1"/><v:tabList/>MetaData</text>		</g>
		<g id="shape21-71" v:mID="21" v:groupContext="shape" transform="translate(447.364,-981.714)">
			<title>Hexagon.123</title>
			<desc>Web Scrapping</desc>
			<v:userDefs>
				<v:ud v:nameU="visVersion" v:val="VT0(15):26"/>
			</v:userDefs>
			<v:textBlock v:margins="rect(4,4,4,4)" v:tabSpace="42.5197"/>
			<v:textRect cx="80.2887" cy="1080.25" width="160.58" height="160.577"/>
			<path d="M126.64 999.96 L33.93 999.96 L-12.42 1080.25 L33.93 1160.54 L126.64 1160.54 L173 1080.25 L126.64 999.96 Z"
					class="st10"/>
			<text x="6.79" y="1087.45" class="st2" v:langID="1033"><v:paragraph v:horizAlign="1"/><v:tabList/>Web Scrapping</text>		</g>
		<g id="shape22-74" v:mID="22" v:groupContext="shape" transform="translate(586.261,-901.426)">
			<title>Hexagon.124</title>
			<desc>Big Data Spark</desc>
			<v:userDefs>
				<v:ud v:nameU="visVersion" v:val="VT0(15):26"/>
			</v:userDefs>
			<v:textBlock v:margins="rect(4,4,4,4)" v:tabSpace="42.5197"/>
			<v:textRect cx="80.2887" cy="1080.25" width="160.58" height="160.577"/>
			<path d="M126.64 999.96 L33.93 999.96 L-12.42 1080.25 L33.93 1160.54 L126.64 1160.54 L173 1080.25 L126.64 999.96 Z"
					class="st10"/>
			<text x="9.83" y="1087.45" class="st2" v:langID="1033"><v:paragraph v:horizAlign="1"/><v:tabList/>Big Data Spark</text>		</g>
		<g id="shape23-77" v:mID="23" v:groupContext="shape" transform="translate(447.364,-18.25)">
			<title>Hexagon.125</title>
			<desc>Risk Evaluation</desc>
			<v:userDefs>
				<v:ud v:nameU="visVersion" v:val="VT0(15):26"/>
			</v:userDefs>
			<v:textBlock v:margins="rect(4,4,4,4)" v:tabSpace="42.5197"/>
			<v:textRect cx="80.2887" cy="1080.25" width="160.58" height="160.577"/>
			<path d="M126.64 999.96 L33.93 999.96 L-12.42 1080.25 L33.93 1160.54 L126.64 1160.54 L173 1080.25 L126.64 999.96 Z"
					class="st1"/>
			<text x="6.92" y="1087.45" class="st2" v:langID="1033"><v:paragraph v:horizAlign="1"/><v:tabList/>Risk Evaluation</text>		</g>
		<g id="shape24-80" v:mID="24" v:groupContext="shape" transform="translate(585.763,-98.5387)">
			<title>Hexagon.126</title>
			<desc>Sentiment Analysis</desc>
			<v:userDefs>
				<v:ud v:nameU="visVersion" v:val="VT0(15):26"/>
			</v:userDefs>
			<v:textBlock v:margins="rect(4,4,4,4)" v:tabSpace="42.5197"/>
			<v:textRect cx="80.2887" cy="1080.25" width="160.58" height="160.577"/>
			<path d="M126.64 999.96 L33.93 999.96 L-12.42 1080.25 L33.93 1160.54 L126.64 1160.54 L173 1080.25 L126.64 999.96 Z"
					class="st1"/>
			<text x="29.85" y="1073.05" class="st2" v:langID="1033"><v:paragraph v:horizAlign="1"/><v:tabList/>Sentiment <tspan
						x="40.97" dy="1.2em" class="st6">Analysis</tspan></text>		</g>
		<g id="shape25-84" v:mID="25" v:groupContext="shape" transform="translate(308.466,-98.5387)">
			<title>Hexagon.127</title>
			<desc>Equity Valuation</desc>
			<v:userDefs>
				<v:ud v:nameU="visVersion" v:val="VT0(15):26"/>
			</v:userDefs>
			<v:textBlock v:margins="rect(4,4,4,4)" v:tabSpace="42.5197"/>
			<v:textRect cx="80.2887" cy="1080.25" width="160.58" height="160.577"/>
			<path d="M126.64 999.96 L33.93 999.96 L-12.42 1080.25 L33.93 1160.54 L126.64 1160.54 L173 1080.25 L126.64 999.96 Z"
					class="st1"/>
			<text x="49.62" y="1073.05" class="st2" v:langID="1033"><v:paragraph v:horizAlign="1"/><v:tabList/>Equity <tspan
						x="33.52" dy="1.2em" class="st6">Valuation</tspan></text>		</g>
		<g id="shape26-88" v:mID="26" v:groupContext="shape" transform="translate(30.6707,-419.694)">
			<title>Hexagon.128</title>
			<desc>Document Templating</desc>
			<v:userDefs>
				<v:ud v:nameU="visVersion" v:val="VT0(15):26"/>
			</v:userDefs>
			<v:textBlock v:margins="rect(4,4,4,4)" v:tabSpace="42.5197"/>
			<v:textRect cx="80.2887" cy="1080.25" width="160.58" height="160.577"/>
			<path d="M126.64 999.96 L33.93 999.96 L-12.42 1080.25 L33.93 1160.54 L126.64 1160.54 L173 1080.25 L126.64 999.96 Z"
					class="st9"/>
			<text x="29.32" y="1073.05" class="st2" v:langID="1033"><v:paragraph v:horizAlign="1"/><v:tabList/>Document <tspan
						x="25.35" dy="1.2em" class="st6">Templating</tspan></text>		</g>
		<g id="shape27-92" v:mID="27" v:groupContext="shape" transform="translate(169.568,-178.827)">
			<title>Hexagon.129</title>
			<desc>Factor Analysis</desc>
			<v:userDefs>
				<v:ud v:nameU="visVersion" v:val="VT0(15):26"/>
			</v:userDefs>
			<v:textBlock v:margins="rect(4,4,4,4)" v:tabSpace="42.5197"/>
			<v:textRect cx="80.2887" cy="1080.25" width="160.58" height="160.577"/>
			<path d="M126.64 999.96 L33.93 999.96 L-12.42 1080.25 L33.93 1160.54 L126.64 1160.54 L173 1080.25 L126.64 999.96 Z"
					class="st9"/>
			<text x="7.39" y="1087.45" class="st2" v:langID="1033"><v:paragraph v:horizAlign="1"/><v:tabList/>Factor Analysis</text>		</g>
		<g id="shape28-95" v:mID="28" v:groupContext="shape" transform="translate(30.6707,-259.116)">
			<title>Hexagon.130</title>
			<desc>VBA &#38; Macros</desc>
			<v:userDefs>
				<v:ud v:nameU="visVersion" v:val="VT0(15):26"/>
			</v:userDefs>
			<v:textBlock v:margins="rect(4,4,4,4)" v:tabSpace="42.5197"/>
			<v:textRect cx="80.2887" cy="1080.25" width="160.58" height="160.577"/>
			<path d="M126.64 999.96 L33.93 999.96 L-12.42 1080.25 L33.93 1160.54 L126.64 1160.54 L173 1080.25 L126.64 999.96 Z"
					class="st9"/>
			<text x="10.11" y="1087.45" class="st2" v:langID="1033"><v:paragraph v:horizAlign="1"/><v:tabList/>VBA &#38; Macros</text>		</g>
		<g id="shape29-98" v:mID="29" v:groupContext="shape" transform="translate(169.568,-821.137)">
			<title>Hexagon.131</title>
			<desc>Platform Integration</desc>
			<v:userDefs>
				<v:ud v:nameU="visVersion" v:val="VT0(15):26"/>
			</v:userDefs>
			<v:textBlock v:margins="rect(4,4,4,4)" v:tabSpace="42.5197"/>
			<v:textRect cx="80.2887" cy="1080.25" width="160.58" height="160.577"/>
			<path d="M126.64 999.96 L33.93 999.96 L-12.42 1080.25 L33.93 1160.54 L126.64 1160.54 L173 1080.25 L126.64 999.96 Z"
					class="st7"/>
			<text x="37.81" y="1073.05" class="st2" v:langID="1033"><v:paragraph v:horizAlign="1"/><v:tabList/>Platform <tspan
						x="25.98" dy="1.2em" class="st6">Integration</tspan></text>		</g>
		<g id="shape30-102" v:mID="30" v:groupContext="shape" transform="translate(30.6707,-580.271)">
			<title>Hexagon.132</title>
			<desc>Web Navigation</desc>
			<v:userDefs>
				<v:ud v:nameU="visVersion" v:val="VT0(15):26"/>
			</v:userDefs>
			<v:textBlock v:margins="rect(4,4,4,4)" v:tabSpace="42.5197"/>
			<v:textRect cx="80.2887" cy="1080.25" width="160.58" height="160.577"/>
			<path d="M126.64 999.96 L33.93 999.96 L-12.42 1080.25 L33.93 1160.54 L126.64 1160.54 L173 1080.25 L126.64 999.96 Z"
					class="st7"/>
			<text x="57.34" y="1073.05" class="st2" v:langID="1033"><v:paragraph v:horizAlign="1"/><v:tabList/>Web <tspan x="27.82"
						dy="1.2em" class="st6">Navigation</tspan></text>		</g>
		<g id="shape31-106" v:mID="31" v:groupContext="shape" transform="translate(30.6707,-740.848)">
			<title>Hexagon.133</title>
			<desc>APIs</desc>
			<v:userDefs>
				<v:ud v:nameU="visVersion" v:val="VT0(15):26"/>
			</v:userDefs>
			<v:textBlock v:margins="rect(4,4,4,4)" v:tabSpace="42.5197"/>
			<v:textRect cx="80.2887" cy="1080.25" width="160.58" height="160.577"/>
			<path d="M126.64 999.96 L33.93 999.96 L-12.42 1080.25 L33.93 1160.54 L126.64 1160.54 L173 1080.25 L126.64 999.96 Z"
					class="st7"/>
			<text x="59.43" y="1087.45" class="st2" v:langID="1033"><v:paragraph v:horizAlign="1"/><v:tabList/>APIs</text>		</g>
		<g id="shape32-109" v:mID="32" v:groupContext="shape" transform="translate(725.159,-499.982)">
			<title>Hexagon.134</title>
			<desc>Regressions &#38; Statistics</desc>
			<v:userDefs>
				<v:ud v:nameU="visVersion" v:val="VT0(15):26"/>
			</v:userDefs>
			<v:textBlock v:margins="rect(4,4,4,4)" v:tabSpace="42.5197"/>
			<v:textRect cx="80.2887" cy="1080.25" width="160.58" height="160.577"/>
			<path d="M126.64 999.96 L33.93 999.96 L-12.42 1080.25 L33.93 1160.54 L126.64 1160.54 L173 1080.25 L126.64 999.96 Z"
					class="st8"/>
			<text x="11.63" y="1073.05" class="st2" v:langID="1033"><v:paragraph v:horizAlign="1"/><v:tabList/>Regressions &#38; <tspan
						x="37" dy="1.2em" class="st6">Statistics</tspan></text>		</g>
		<g id="shape33-113" v:mID="33" v:groupContext="shape" transform="translate(586.681,-259.116)">
			<title>Hexagon.135</title>
			<desc>Scenario Simulations</desc>
			<v:userDefs>
				<v:ud v:nameU="visVersion" v:val="VT0(15):26"/>
			</v:userDefs>
			<v:textBlock v:margins="rect(4,4,4,4)" v:tabSpace="42.5197"/>
			<v:textRect cx="80.2887" cy="1080.25" width="160.58" height="160.577"/>
			<path d="M126.64 999.96 L33.93 999.96 L-12.42 1080.25 L33.93 1160.54 L126.64 1160.54 L173 1080.25 L126.64 999.96 Z"
					class="st1"/>
			<text x="38.41" y="1073.05" class="st2" v:langID="1033"><v:paragraph v:horizAlign="1"/><v:tabList/>Scenario <tspan
						x="23.53" dy="1.2em" class="st6">Simulations</tspan></text>		</g>
		<g id="shape34-117" v:mID="34" v:groupContext="shape" transform="translate(169.568,-499.982)">
			<title>Hexagon.136</title>
			<desc>Dashboards</desc>
			<v:userDefs>
				<v:ud v:nameU="visVersion" v:val="VT0(15):26"/>
			</v:userDefs>
			<v:textBlock v:margins="rect(4,4,4,4)" v:tabSpace="42.5197"/>
			<v:textRect cx="80.2887" cy="1080.25" width="160.58" height="160.577"/>
			<path d="M126.64 999.96 L33.93 999.96 L-12.42 1080.25 L33.93 1160.54 L126.64 1160.54 L173 1080.25 L126.64 999.96 Z"
					class="st9"/>
			<text x="22.6" y="1087.45" class="st2" v:langID="1033"><v:paragraph v:horizAlign="1"/><v:tabList/>Dashboards</text>		</g>
		<g id="shape35-120" v:mID="35" v:groupContext="shape" transform="translate(308.466,-740.848)">
			<title>Hexagon.137</title>
			<desc>ETL</desc>
			<v:userDefs>
				<v:ud v:nameU="visVersion" v:val="VT0(15):26"/>
			</v:userDefs>
			<v:textBlock v:margins="rect(4,4,4,4)" v:tabSpace="42.5197"/>
			<v:textRect cx="80.2887" cy="1080.25" width="160.58" height="160.577"/>
			<path d="M126.64 999.96 L33.93 999.96 L-12.42 1080.25 L33.93 1160.54 L126.64 1160.54 L173 1080.25 L126.64 999.96 Z"
					class="st10"/>
			<text x="63.54" y="1087.45" class="st2" v:langID="1033"><v:paragraph v:horizAlign="1"/><v:tabList/>ETL</text>		</g>
		<g id="shape36-123" v:mID="36" v:groupContext="shape" transform="translate(586.681,-740.848)">
			<title>Hexagon.138</title>
			<desc>RegEx</desc>
			<v:userDefs>
				<v:ud v:nameU="visVersion" v:val="VT0(15):26"/>
			</v:userDefs>
			<v:textBlock v:margins="rect(4,4,4,4)" v:tabSpace="42.5197"/>
			<v:textRect cx="80.2887" cy="1080.25" width="160.58" height="160.577"/>
			<path d="M126.64 999.96 L33.93 999.96 L-12.42 1080.25 L33.93 1160.54 L126.64 1160.54 L173 1080.25 L126.64 999.96 Z"
					class="st5"/>
			<text x="51.1" y="1087.45" class="st2" v:langID="1033"><v:paragraph v:horizAlign="1"/><v:tabList/>RegEx</text>		</g>
		<g id="shape37-126" v:mID="37" v:groupContext="shape" transform="translate(308.466,-259.116)">
			<title>Hexagon.139</title>
			<desc>FP&#38;A</desc>
			<v:userDefs>
				<v:ud v:nameU="visVersion" v:val="VT0(15):26"/>
			</v:userDefs>
			<v:textBlock v:margins="rect(4,4,4,4)" v:tabSpace="42.5197"/>
			<v:textRect cx="80.2887" cy="1080.25" width="160.58" height="160.577"/>
			<path d="M126.64 999.96 L33.93 999.96 L-12.42 1080.25 L33.93 1160.54 L126.64 1160.54 L173 1080.25 L126.64 999.96 Z"
					class="st1"/>
			<text x="53.45" y="1087.45" class="st2" v:langID="1033"><v:paragraph v:horizAlign="1"/><v:tabList/>FP&#38;A</text>		</g>
	</g>
</svg>
