<?xml version="1.0" encoding="UTF-8" standalone="no"?>
<!DOCTYPE svg PUBLIC "-//W3C//DTD SVG 1.1//EN" "http://www.w3.org/Graphics/SVG/1.1/DTD/svg11.dtd">
<!-- Generated by Microsoft Visio, SVG Export svg_venn_frag.svg Page-1 -->
<svg xmlns="http://www.w3.org/2000/svg" xmlns:xlink="http://www.w3.org/1999/xlink" xmlns:ev="http://www.w3.org/2001/xml-events"
		xmlns:v="http://schemas.microsoft.com/visio/2003/SVGExtensions/" width="5.35485in" height="5.30117in"
		viewBox="0 0 385.549 381.685" xml:space="preserve" color-interpolation-filters="sRGB" class="st10">
	<v:documentProperties v:langID="1033" v:metric="true" v:viewMarkup="false">
		<v:userDefs>
			<v:ud v:nameU="msvSubprocessMaster" v:prompt="" v:val="VT4(Rectangle)"/>
			<v:ud v:nameU="msvNoAutoConnect" v:val="VT0(1):26"/>
		</v:userDefs>
	</v:documentProperties>

	<style type="text/css">
	<![CDATA[
		.st1 {fill:#ffcc00;fill-opacity:0.5;stroke:#000000;stroke-width:0.25}
		.st2 {fill:#000000;font-size:1.5em}
		.st3 {fill:#ff0000;fill-opacity:0.5;stroke:#000000;stroke-width:0.25}
		.st4 {fill:#ff66ff;fill-opacity:0.5;stroke:#000000;stroke-width:0.25}
		.st5 {fill:#ffffff;fill-opacity:0.5;stroke:#000000;stroke-width:0.25}
		.st6 {fill:#3333ff;fill-opacity:0.5;stroke:#000000;stroke-width:0.25}
		.st7 {fill:#00ffff;fill-opacity:0.5;stroke:#000000;stroke-width:0.25}
		.st8 {font-size:1em}
		.st9 {fill:#00b050;fill-opacity:0.5;stroke:#000000;stroke-width:0.25}
		.st10 {fill:none;fill-rule:evenodd;font-size:12px;overflow:visible;stroke-linecap:square;stroke-miterlimit:3}
	]]>
	</style>

	<g v:mID="0" v:index="1" v:groupContext="foregroundPage">
		<v:userDefs>
			<v:ud v:nameU="msvThemeOrder" v:val="VT0(0):26"/>
		</v:userDefs>
		<title>Page-1</title>
		<v:pageProperties v:drawingScale="0.0393701" v:pageScale="0.0393701" v:drawingUnits="24" v:shadowOffsetX="8.50394"
				v:shadowOffsetY="-8.50394"/>
		<g id="shape1-1" v:mID="1" v:groupContext="shape" transform="translate(117.17,-28.4211)">
			<title>Sheet.1</title>
			<desc>Finance</desc>
			<v:textBlock v:margins="rect(4,4,4,4)" v:tabSpace="42.5197"/>
			<v:textRect cx="75.6103" cy="326.498" width="151.23" height="110.373"/>
			<path d="M75.6 381.68 A125.112 125.112 -180 0 0 151.22 271.31 A125.112 125.112 0 0 1 0 271.61 A125.112 125.112 -180 0
						 0 75.6 381.68 Z" class="st1"/>
			<text x="47.36" y="331.9" class="st2" v:langID="1033"><v:paragraph v:horizAlign="1"/><v:tabList/>Finance</text>		</g>
		<g id="shape2-4" v:mID="2" v:groupContext="shape" transform="translate(18.25,-18.25)">
			<title>Sheet.2</title>
			<desc>Business</desc>
			<v:textBlock v:margins="rect(4,4,4,4)" v:tabSpace="42.5197"/>
			<v:textRect cx="87.2622" cy="269.364" width="174.53" height="224.64"/>
			<path d="M174.52 371.51 A125.112 125.112 0 0 1 98.92 261.44 A125.112 125.112 0 0 1 49.22 161.61 A125.112 125.112 0 0
						 1 49.3 157.04 A125.112 125.112 -180 0 0 0 256.57 A125.112 125.112 -180 0 0 174.52 371.51 Z" class="st3"/>
			<text x="4" y="274.76" class="st2" v:langID="1033"><v:paragraph/><v:tabList/>Business</text>		</g>
		<g id="shape3-7" v:mID="3" v:groupContext="shape" transform="translate(67.4687,-138.492)">
			<title>Sheet.3</title>
			<desc>Processes</desc>
			<v:textBlock v:margins="rect(4,4,4,4)" v:tabSpace="42.5197"/>
			<v:textRect cx="44.7121" cy="286.814" width="125.31" height="129.982"/>
			<path d="M125.31 261.87 A125.112 125.112 -180 0 0 0.08 277.29 A125.112 125.112 -180 0 0 0 281.85 A125.112 125.112 -180
						 0 0 49.7 381.68 A125.112 125.112 0 0 1 49.61 376.81 A125.112 125.112 0 0 1 125.31 261.87 Z" class="st4"/>
			<text x="8.86" y="292.21" class="st2" v:langID="1033"><v:paragraph v:horizAlign="1"/><v:tabList/>Processes</text>		</g>
		<g id="shape4-10" v:mID="4" v:groupContext="shape" transform="translate(117.075,-113.211)">
			<title>Sheet.4</title>
			<desc>Automation</desc>
			<v:textBlock v:margins="rect(4,4,4,4)" v:tabSpace="42.5197"/>
			<v:textRect cx="75.6995" cy="309.138" width="151.4" height="145.092"/>
			<path d="M75.7 236.59 A125.112 125.112 -180 0 0 -0 351.53 A125.112 125.112 -180 0 0 0.09 356.4 A125.112 125.112 -180
						 0 0 151.32 356.1 A125.112 125.112 -180 0 0 151.4 351.53 A125.112 125.112 -180 0 0 75.7 236.59 Z"
					class="st5"/>
			<text x="31.95" y="314.54" class="st2" v:langID="1033"><v:paragraph v:horizAlign="1"/><v:tabList/>Automation</text>		</g>
		<g id="shape5-13" v:mID="5" v:groupContext="shape" transform="translate(67.5521,-242.89)">
			<title>Sheet.5</title>
			<desc>Data</desc>
			<v:textBlock v:margins="rect(4,4,4,4)" v:tabSpace="42.5197"/>
			<v:textRect cx="125.023" cy="321.412" width="250.05" height="120.544"/>
			<path d="M250.05 381.38 A125.112 125.112 -180 0 0 0 381.68 A125.112 125.112 0 0 1 125.22 366.27 A125.112 125.112 0 0
						 1 250.05 381.38 Z" class="st6"/>
			<text x="107.85" y="326.81" class="st2" v:langID="1033"><v:paragraph v:horizAlign="1"/><v:tabList/>Data</text>		</g>
		<g id="shape6-16" v:mID="6" v:groupContext="shape" transform="translate(192.774,-138.794)">
			<title>Sheet.6</title>
			<desc>Machine Learning</desc>
			<v:textBlock v:margins="rect(4,4,4,4)" v:tabSpace="42.5197" v:verticalAlign="0"/>
			<v:textRect cx="61.1387" cy="329.637" width="124.92" height="129.68"/>
			<path d="M124.82 277.29 A125.112 125.112 -180 0 0 0 262.18 A125.112 125.112 0 0 1 75.7 377.12 A125.112 125.112 0 0 1
						 75.62 381.68 A125.112 125.112 -180 0 0 124.92 282.16 A125.112 125.112 -180 0 0 124.82 277.29 Z"
					class="st7"/>
			<text x="55.97" y="285" class="st2" v:langID="1033"><v:paragraph v:horizAlign="2"/><v:tabList/>Machine<v:newlineChar/><tspan
						x="56.66" dy="1.2em" class="st8">Learning</tspan></text>		</g>
		<g id="shape7-20" v:mID="7" v:groupContext="shape" transform="translate(192.774,-18.25)">
			<title>Sheet.7</title>
			<desc>Economics</desc>
			<v:textBlock v:margins="rect(4,4,4,4)" v:tabSpace="42.5197"/>
			<v:textRect cx="87.2622" cy="269.213" width="174.53" height="224.943"/>
			<path d="M124.82 156.74 A125.112 125.112 0 0 1 124.92 161.61 A125.112 125.112 0 0 1 75.62 261.14 A125.112 125.112 0 0
						 1 0 371.51 A125.112 125.112 -180 0 0 174.52 256.57 A125.112 125.112 -180 0 0 124.82 156.74 Z" class="st9"/>
			<text x="92.52" y="274.61" class="st2" v:langID="1033"><v:paragraph v:horizAlign="2"/><v:tabList/>Economics</text>		</g>
	</g>
</svg>
