<?xml version="1.0" standalone="no"?>
<!DOCTYPE svg PUBLIC "-//W3C//DTD SVG 20010904//EN"
 "http://www.w3.org/TR/2001/REC-SVG-20010904/DTD/svg10.dtd">

<svg version="1.0" 
    xmlns="http://www.w3.org/2000/svg" 
    width="300.000000pt" 
    height="225.000000pt" 
    viewBox="0 0 300.000000 225.000000" 
    preserveAspectRatio="xMidYMid meet">
    <g transform="translate(0.000000,225.000000) scale(0.100000,-0.100000)"
    fill="#000000" stroke="none">
        <path d="M1148 1841 c-143 -56 -221 -163 -222 -307 l-1 -71 -53 -17 c-220 -68
        -307 -321 -176 -513 46 -67 126 -121 204 -137 24 -5 25 -8 25 -78 0 -63 5 -83
        33 -140 64 -130 172 -193 317 -186 66 3 90 10 140 36 l61 32 59 -32 c80 -43
        191 -51 276 -19 79 30 141 88 181 168 27 55 32 77 32 139 l1 73 44 11 c61 15
        96 35 148 83 68 63 96 125 101 229 4 77 2 92 -22 145 -45 98 -143 180 -237
        198 l-34 6 -1 72 c-2 259 -303 418 -517 273 l-33 -23 -35 24 c-76 53 -204 68
        -291 34z m239 -21 c78 -33 82 -42 39 -91 -47 -55 -68 -122 -68 -214 l1 -74
        -42 -21 c-23 -12 -54 -33 -68 -47 l-27 -24 -25 24 c-42 43 -126 79 -193 85
        -58 4 -62 6 -68 33 -8 39 9 130 33 177 78 154 260 220 418 152z m435 -2 c71
        -33 118 -75 151 -136 31 -58 50 -142 41 -188 -6 -30 -8 -32 -65 -37 -66 -6
        -135 -36 -186 -80 l-33 -29 -38 34 c-20 18 -52 40 -70 47 l-32 13 0 82 c0 68
        -4 90 -29 141 -15 33 -38 69 -50 79 -27 25 -27 32 5 53 88 57 208 66 306 21z
        m-303 -103 c44 -61 61 -116 61 -194 l0 -66 -105 0 -105 0 0 66 c0 37 7 85 15
        108 17 49 73 131 90 131 6 0 26 -20 44 -45z m-569 -322 c28 -67 108 -154 160
        -173 l35 -12 0 -84 0 -83 -39 -18 c-58 -26 -130 -103 -156 -167 -22 -51 -26
        -55 -49 -49 -53 12 -144 68 -178 109 -65 80 -91 204 -63 304 25 91 117 185
        210 214 25 8 48 15 51 15 3 1 16 -25 29 -56z m164 23 c28 -14 63 -37 75 -50
        l24 -25 -29 -58 c-16 -32 -30 -60 -32 -62 -5 -10 -73 30 -112 65 -39 35 -67
        80 -91 141 l-10 26 61 -6 c35 -3 83 -16 114 -31z m452 21 c10 -10 -20 -72 -59
        -121 l-31 -39 -29 34 c-30 36 -50 71 -61 106 -5 16 -2 23 11 27 26 7 160 2
        169 -7z m434 -12 c-30 -79 -75 -136 -139 -177 -25 -15 -48 -28 -52 -28 -4 0
        -19 25 -33 57 -15 31 -29 54 -31 51 -3 -3 7 -28 21 -57 15 -28 24 -54 20 -58
        -3 -3 -31 -8 -62 -11 -55 -5 -56 -4 -49 19 39 125 171 226 297 228 36 1 37 0
        28 -24z m133 -12 c62 -31 117 -86 147 -148 21 -42 25 -65 25 -140 0 -79 -4
        -96 -27 -142 -36 -67 -90 -120 -153 -148 -94 -43 -98 -42 -124 20 -44 106
        -153 188 -268 201 -32 4 -61 12 -65 18 -4 6 -8 29 -8 51 0 22 4 45 8 51 4 6
        34 13 68 16 33 3 80 16 104 28 64 33 132 107 160 173 23 56 25 57 54 51 17 -3
        53 -17 79 -31z m-754 -14 c6 -17 27 -53 46 -80 19 -27 35 -51 35 -52 0 -9
        -108 -56 -133 -59 -26 -3 -30 2 -47 45 -18 46 -39 81 -46 74 -2 -1 11 -30 27
        -62 l30 -60 -37 -3 c-52 -5 -84 5 -84 26 0 21 33 77 69 116 25 28 108 86 122
        86 4 0 12 -14 18 -31z m266 2 c80 -46 81 -49 43 -130 -32 -68 -34 -71 -63 -65
        -39 7 -135 55 -135 66 0 5 11 21 25 36 14 15 36 48 48 75 12 26 24 47 27 47 3
        0 28 -13 55 -29z m-114 -170 c30 -16 70 -32 89 -36 l35 -6 0 -64 0 -63 -55
        -16 c-30 -8 -71 -26 -90 -39 l-35 -24 -38 25 c-21 14 -59 31 -85 37 l-46 12
        -1 66 0 66 40 10 c22 6 58 22 80 35 22 13 43 25 46 25 3 1 30 -12 60 -28z
        m-290 -41 l49 0 0 -64 0 -63 -62 -6 c-35 -3 -64 -4 -66 -3 -9 9 -14 80 -8 111
        5 27 11 35 22 31 9 -3 38 -6 65 -6z m39 -157 c0 -10 -12 -38 -25 -62 -14 -24
        -24 -46 -22 -48 7 -6 38 46 51 85 15 42 29 44 108 10 69 -29 77 -43 46 -76
        -14 -15 -36 -47 -48 -72 -12 -25 -24 -46 -25 -48 -6 -7 -66 29 -102 61 -42 37
        -93 113 -93 138 0 18 20 25 78 28 24 1 32 -3 32 -16z m408 -55 l34 -71 -29
        -24 c-30 -25 -103 -67 -108 -61 -1 2 -14 26 -28 53 -14 28 -34 59 -46 69 -27
        25 -26 32 5 53 22 14 118 52 134 52 3 1 20 -31 38 -71z m100 57 c7 -7 -42 -98
        -54 -102 -9 -3 -64 94 -64 113 0 7 110 -3 118 -11z m-605 -66 c27 -56 28 -61
        12 -79 -33 -36 -135 -82 -196 -87 l-60 -6 11 29 c17 45 56 107 82 131 22 21
        108 73 118 72 3 0 18 -27 33 -60z m726 -5 c32 -27 71 -86 91 -138 l11 -29 -55
        6 c-67 7 -130 34 -178 76 l-36 32 30 59 31 59 37 -19 c21 -10 52 -31 69 -46z
        m-386 -56 c52 -78 55 -94 16 -102 -17 -3 -46 -6 -64 -6 -18 0 -47 3 -64 6 -26
        6 -31 10 -25 28 10 36 73 126 88 126 7 0 29 -24 49 -52z m-260 -41 c24 -18 57
        -39 73 -45 29 -12 29 -13 26 -88 -4 -90 12 -145 64 -215 20 -28 35 -52 33 -54
        -2 -2 -29 -16 -59 -32 -48 -24 -66 -28 -140 -28 -99 0 -152 20 -220 81 -70 63
        -119 190 -104 270 6 31 8 32 62 36 64 5 154 43 192 81 14 14 26 25 27 26 2 1
        22 -14 46 -32z m499 7 c52 -43 128 -76 189 -81 53 -5 57 -8 63 -34 16 -79 -34
        -210 -104 -273 -68 -61 -121 -81 -220 -81 -74 0 -92 4 -142 29 -32 16 -58 31
        -58 33 0 1 16 25 35 52 48 67 65 121 65 210 l0 76 44 23 c24 13 54 35 67 48
        12 13 24 24 27 24 2 0 18 -11 34 -26z m-182 -146 c0 -80 -23 -149 -71 -209
        l-33 -42 -33 38 c-46 54 -73 132 -73 213 l0 67 105 0 105 0 0 -67z"/>
        <path d="M1803 1125 c0 -38 2 -53 4 -32 2 20 2 52 0 70 -2 17 -4 1 -4 -38z"/>
    </g>
</svg>
