<?xml version="1.0" encoding="UTF-8" standalone="no"?>
<!DOCTYPE svg PUBLIC "-//W3C//DTD SVG 1.1//EN" "http://www.w3.org/Graphics/SVG/1.1/DTD/svg11.dtd">
<!-- Generated by Microsoft Visio, SVG Export knowledge_topvenn.svg Page-1 -->
<svg xmlns="http://www.w3.org/2000/svg" xmlns:xlink="http://www.w3.org/1999/xlink" xmlns:ev="http://www.w3.org/2001/xml-events"
		xmlns:v="http://schemas.microsoft.com/visio/2003/SVGExtensions/" width="15.8876in" height="3.47157in"
		viewBox="0 0 1143.9 249.953" xml:space="preserve" color-interpolation-filters="sRGB" class="st11">
	<v:documentProperties v:langID="1033" v:metric="true" v:viewMarkup="false">
		<v:userDefs>
			<v:ud v:nameU="msvSubprocessMaster" v:prompt="" v:val="VT4(Rectangle)"/>
			<v:ud v:nameU="msvNoAutoConnect" v:val="VT0(1):26"/>
		</v:userDefs>
	</v:documentProperties>

	<style type="text/css">
	<![CDATA[
		.st1 {fill:#b18cff;fill-opacity:0.5;stroke:#feffff;stroke-width:3}
		.st2 {fill:#000000;font-family:Calibri;font-size:1.5em;font-style:italic}
		.st3 {fill:#3333cc;fill-opacity:0.5;stroke:#feffff;stroke-width:3}
		.st4 {fill:#ed7d31;fill-opacity:0.5;stroke:#feffff;stroke-width:3}
		.st5 {font-size:1em}
		.st6 {fill:#00fefe;fill-opacity:0.55;stroke:#feffff;stroke-width:3}
		.st7 {fill:#78b832;fill-opacity:0.5;stroke:#feffff;stroke-width:3}
		.st8 {fill:#ff0000;fill-opacity:0.5;stroke:#feffff;stroke-width:3}
		.st9 {fill:#ffff00;fill-opacity:0.7;stroke:#feffff;stroke-width:3}
		.st10 {fill:#000000;font-family:Calibri;font-size:2.50001em;font-weight:bold}
		.st11 {fill:none;fill-rule:evenodd;font-size:12px;overflow:visible;stroke-linecap:square;stroke-miterlimit:3}
	]]>
	</style>

	<g v:mID="0" v:index="1" v:groupContext="foregroundPage">
		<v:userDefs>
			<v:ud v:nameU="msvThemeOrder" v:val="VT0(0):26"/>
		</v:userDefs>
		<title>Page-1</title>
		<v:pageProperties v:drawingScale="0.0393701" v:pageScale="0.0393701" v:drawingUnits="24" v:shadowOffsetX="8.50394"
				v:shadowOffsetY="-8.50394"/>
		<g id="shape1-1" v:mID="1" v:groupContext="shape" transform="translate(909.647,-21)">
			<title>Circle.177</title>
			<desc>Finance</desc>
			<v:userDefs>
				<v:ud v:nameU="visVersion" v:val="VT0(15):26"/>
			</v:userDefs>
			<v:textBlock v:margins="rect(4,4,4,4)" v:tabSpace="42.5197"/>
			<v:textRect cx="125.279" cy="145.9" width="181.96" height="155.965"/>
			<path d="M0 145.98 A103.976 103.976 0 0 1 207.95 145.98 A103.976 103.976 0 1 1 0 145.98 Z" class="st1"/>
			<text x="97.15" y="151.3" class="st2" v:langID="1033"><v:paragraph v:horizAlign="1"/><v:tabList/>Finance</text>		</g>
		<g id="shape2-4" v:mID="2" v:groupContext="shape" transform="translate(54.6072,-21)">
			<title>Circle.185</title>
			<desc>WebDev</desc>
			<v:userDefs>
				<v:ud v:nameU="visVersion" v:val="VT0(15):26"/>
			</v:userDefs>
			<v:textBlock v:margins="rect(4,4,4,4)" v:tabSpace="42.5197"/>
			<v:textRect cx="54.3721" cy="141.209" width="181.96" height="155.965"/>
			<path d="M0 145.98 A103.976 103.976 0 0 1 207.95 145.98 A103.976 103.976 0 1 1 0 145.98 Z" class="st3"/>
			<text x="23.59" y="146.61" class="st2" v:langID="1033"><v:paragraph v:horizAlign="1"/><v:tabList/>WebDev</text>		</g>
		<g id="shape3-7" v:mID="3" v:groupContext="shape" transform="translate(192.769,-21)">
			<title>Circle.213</title>
			<desc>Business Processes</desc>
			<v:userDefs>
				<v:ud v:nameU="visVersion" v:val="VT0(15):26"/>
			</v:userDefs>
			<v:textBlock v:margins="rect(4,4,4,4)" v:tabSpace="42.5197"/>
			<v:textRect cx="106.322" cy="136.517" width="181.96" height="155.965"/>
			<path d="M0 145.98 A103.976 103.976 0 0 1 207.95 145.98 A103.976 103.976 0 1 1 0 145.98 Z" class="st4"/>
			<text x="75.3" y="131.12" class="st2" v:langID="1033"><v:paragraph v:horizAlign="1"/><v:tabList/>Business<v:newlineChar/><tspan
						x="71.12" dy="1.2em" class="st5">Processes</tspan></text>		</g>
		<g id="shape4-11" v:mID="4" v:groupContext="shape" transform="translate(330.93,-21)">
			<title>Circle.175</title>
			<desc>Information Systems</desc>
			<v:userDefs>
				<v:ud v:nameU="visVersion" v:val="VT0(15):26"/>
			</v:userDefs>
			<v:textBlock v:margins="rect(4,4,4,4)" v:tabSpace="42.5197"/>
			<v:textRect cx="92.181" cy="142.566" width="181.96" height="155.965"/>
			<path d="M0 145.98 A103.976 103.976 0 0 1 207.95 145.98 A103.976 103.976 0 1 1 0 145.98 Z" class="st6"/>
			<text x="48.76" y="137.17" class="st2" v:langID="1033"><v:paragraph v:horizAlign="1"/><v:tabList/>Information<v:newlineChar/><tspan
						x="62.65" dy="1.2em" class="st5">Systems</tspan></text>		</g>
		<g id="shape5-15" v:mID="5" v:groupContext="shape" transform="translate(760.834,-21)">
			<title>Circle</title>
			<desc>Economics</desc>
			<v:userDefs>
				<v:ud v:nameU="visVersion" v:val="VT0(15):26"/>
			</v:userDefs>
			<v:textBlock v:margins="rect(4,4,4,4)" v:tabSpace="42.5197"/>
			<v:textRect cx="117.05" cy="145.9" width="181.96" height="155.965"/>
			<path d="M0 145.98 A103.976 103.976 0 0 1 207.95 145.98 A103.976 103.976 0 1 1 0 145.98 Z" class="st7"/>
			<text x="78.62" y="151.3" class="st2" v:langID="1033"><v:paragraph v:horizAlign="1"/><v:tabList/>Economics</text>		</g>
		<g id="shape6-18" v:mID="6" v:groupContext="shape" transform="translate(621.557,-21)">
			<title>Circle.188</title>
			<desc>Machine Learning</desc>
			<v:userDefs>
				<v:ud v:nameU="visVersion" v:val="VT0(15):26"/>
			</v:userDefs>
			<v:textBlock v:margins="rect(4,4,4,4)" v:tabSpace="42.5197"/>
			<v:textRect cx="100.824" cy="149.207" width="181.96" height="155.965"/>
			<path d="M0 145.98 A103.976 103.976 0 0 1 207.95 145.98 A103.976 103.976 0 1 1 0 145.98 Z" class="st8"/>
			<text x="69.14" y="143.81" class="st2" v:langID="1033"><v:paragraph v:horizAlign="1"/><v:tabList/>Machine<v:newlineChar/><tspan
						x="69.08" dy="1.2em" class="st5">Learning</tspan></text>		</g>
		<g id="shape7-22" v:mID="7" v:groupContext="shape" transform="translate(472.744,-21)">
			<title>Circle.176</title>
			<desc>DATA</desc>
			<v:userDefs>
				<v:ud v:nameU="visVersion" v:val="VT0(15):26"/>
			</v:userDefs>
			<v:textBlock v:margins="rect(4,4,4,4)" v:tabSpace="42.5197"/>
			<v:textRect cx="105.88" cy="144.59" width="181.96" height="155.965"/>
			<path d="M0 145.98 A103.976 103.976 0 0 1 207.95 145.98 A103.976 103.976 0 1 1 0 145.98 Z" class="st9"/>
			<text x="70.82" y="153.59" class="st10" v:langID="1033"><v:paragraph v:horizAlign="1"/><v:tabList/>DATA</text>		</g>
	</g>
</svg>
