<?xml version="1.0" encoding="UTF-8" standalone="no"?>
<!DOCTYPE svg PUBLIC "-//W3C//DTD SVG 1.1//EN" "http://www.w3.org/Graphics/SVG/1.1/DTD/svg11.dtd">
<!-- Generated by Microsoft Visio, SVG Export svg_knowledge.svg Page-1 -->
<svg xmlns="http://www.w3.org/2000/svg" xmlns:xlink="http://www.w3.org/1999/xlink" xmlns:ev="http://www.w3.org/2001/xml-events"
		xmlns:v="http://schemas.microsoft.com/visio/2003/SVGExtensions/" width="16.2067in" height="14.1075in"
		viewBox="0 0 1166.88 1015.74" xml:space="preserve" color-interpolation-filters="sRGB" class="st16">
	<v:documentProperties v:langID="1033" v:metric="true" v:viewMarkup="false">
		<v:userDefs>
			<v:ud v:nameU="msvSubprocessMaster" v:prompt="" v:val="VT4(Rectangle)"/>
			<v:ud v:nameU="msvNoAutoConnect" v:val="VT0(0):26"/>
		</v:userDefs>
	</v:documentProperties>

	<style type="text/css">
	<![CDATA[
		.st1 {fill:#ff3300;fill-opacity:0.5;stroke:#000000;stroke-width:0.25}
		.st2 {fill:#000000;font-family:Calibri;font-size:1.5em}
		.st3 {fill:#ff9933;fill-opacity:0.5;stroke:#000000;stroke-width:0.25}
		.st4 {fill:#33ccff;fill-opacity:0.5;stroke:#000000;stroke-width:0.25}
		.st5 {fill:#9966ff;fill-opacity:0.5;stroke:#000000;stroke-width:0.25}
		.st6 {fill:#ff6699;fill-opacity:0.5;stroke:#000000;stroke-width:0.25}
		.st7 {fill:#ffcc00;fill-opacity:0.5;stroke:#000000;stroke-width:0.25}
		.st8 {fill:#78b832;fill-opacity:0.5;stroke:#000000;stroke-width:0.25}
		.st9 {fill:#000000;font-family:Calibri;font-size:2.50001em;font-weight:bold}
		.st10 {fill:#ffff00;fill-opacity:0.5;stroke:#000000;stroke-width:0.25}
		.st11 {font-size:1em}
		.st12 {fill:#ffbf80;fill-opacity:0.5;stroke:#000000;stroke-width:0.25}
		.st13 {fill:#6adaff;fill-opacity:0.5;stroke:#000000;stroke-width:0.25}
		.st14 {fill:#b18cff;fill-opacity:0.5;stroke:#000000;stroke-width:0.25}
		.st15 {fill:#ff7957;fill-opacity:0.5;stroke:#000000;stroke-width:0.25}
		.st16 {fill:none;fill-rule:evenodd;font-size:12px;overflow:visible;stroke-linecap:square;stroke-miterlimit:3}
	]]>
	</style>

	<g v:mID="0" v:index="1" v:groupContext="foregroundPage">
		<v:userDefs>
			<v:ud v:nameU="msvThemeOrder" v:val="VT0(0):26"/>
		</v:userDefs>
		<title>Page-1</title>
		<v:pageProperties v:drawingScale="0.0393701" v:pageScale="0.0393701" v:drawingUnits="24" v:shadowOffsetX="8.50394"
				v:shadowOffsetY="-8.50394"/>
		<v:layer v:name="Connector" v:index="0"/>
		<g id="shape3-1" v:mID="3" v:groupContext="shape" transform="translate(634.833,-367.594)">
			<title>Hexagon.208</title>
			<desc>Data store</desc>
			<v:userDefs>
				<v:ud v:nameU="visVersion" v:val="VT0(15):26"/>
			</v:userDefs>
			<v:textBlock v:margins="rect(4,4,4,4)" v:tabSpace="42.5197"/>
			<v:textRect cx="69.8688" cy="945.871" width="139.74" height="139.738"/>
			<path d="M110.21 876 L29.53 876 L-10.81 945.87 L29.53 1015.74 L110.21 1015.74 L150.55 945.87 L110.21 876 Z" class="st1"/>
			<text x="31.76" y="951.27" class="st2" v:langID="1033"><v:paragraph v:horizAlign="1"/><v:tabList/>Data store</text>		</g>
		<g id="shape4-4" v:mID="4" v:groupContext="shape" transform="translate(634.833,-507.332)">
			<title>Hexagon.211</title>
			<desc>Data CRUD</desc>
			<v:userDefs>
				<v:ud v:nameU="visVersion" v:val="VT0(15):26"/>
			</v:userDefs>
			<v:textBlock v:margins="rect(4,4,4,4)" v:tabSpace="42.5197"/>
			<v:textRect cx="69.8688" cy="945.871" width="139.74" height="139.738"/>
			<path d="M110.21 876 L29.53 876 L-10.81 945.87 L29.53 1015.74 L110.21 1015.74 L150.55 945.87 L110.21 876 Z" class="st3"/>
			<text x="29.66" y="951.27" class="st2" v:langID="1033"><v:paragraph v:horizAlign="1"/><v:tabList/>Data CRUD</text>		</g>
		<g id="shape5-7" v:mID="5" v:groupContext="shape" transform="translate(392.681,-507.752)">
			<title>Hexagon.212</title>
			<desc>Data Visualization</desc>
			<v:userDefs>
				<v:ud v:nameU="visVersion" v:val="VT0(15):26"/>
			</v:userDefs>
			<v:textBlock v:margins="rect(4,4,4,4)" v:tabSpace="42.5197"/>
			<v:textRect cx="69.8688" cy="945.871" width="139.74" height="139.738"/>
			<path d="M110.21 876 L29.53 876 L-10.81 945.87 L29.53 1015.74 L110.21 1015.74 L150.55 945.87 L110.21 876 Z" class="st4"/>
			<text x="4.38" y="951.27" class="st2" v:langID="1033"><v:paragraph v:horizAlign="1"/><v:tabList/>Data Visualization</text>		</g>
		<g id="shape6-10" v:mID="6" v:groupContext="shape" transform="translate(513.941,-297.988)">
			<title>Hexagon.210</title>
			<desc>Data integration</desc>
			<v:userDefs>
				<v:ud v:nameU="visVersion" v:val="VT0(15):26"/>
			</v:userDefs>
			<v:textBlock v:margins="rect(4,4,4,4)" v:tabSpace="42.5197"/>
			<v:textRect cx="69.8688" cy="945.871" width="139.74" height="139.738"/>
			<path d="M110.21 876 L29.53 876 L-10.81 945.87 L29.53 1015.74 L110.21 1015.74 L150.55 945.87 L110.21 876 Z" class="st5"/>
			<text x="10.13" y="951.27" class="st2" v:langID="1033"><v:paragraph v:horizAlign="1"/><v:tabList/>Data integration</text>		</g>
		<g id="shape7-13" v:mID="7" v:groupContext="shape" transform="translate(392.681,-368.014)">
			<title>Hexagon</title>
			<desc>MetaData</desc>
			<v:userDefs>
				<v:ud v:nameU="visVersion" v:val="VT0(15):26"/>
			</v:userDefs>
			<v:textBlock v:margins="rect(4,4,4,4)" v:tabSpace="42.5197"/>
			<v:textRect cx="69.8688" cy="945.871" width="139.74" height="139.738"/>
			<path d="M110.21 876 L29.53 876 L-10.81 945.87 L29.53 1015.74 L110.21 1015.74 L150.55 945.87 L110.21 876 Z" class="st6"/>
			<text x="33.2" y="951.27" class="st2" v:langID="1033"><v:paragraph v:horizAlign="1"/><v:tabList/>MetaData</text>		</g>
		<g id="shape8-16" v:mID="8" v:groupContext="shape" transform="translate(513.941,-578.277)">
			<title>Hexagon.207</title>
			<desc>Data collection</desc>
			<v:userDefs>
				<v:ud v:nameU="visVersion" v:val="VT0(15):26"/>
			</v:userDefs>
			<v:textBlock v:margins="rect(4,4,4,4)" v:tabSpace="42.5197"/>
			<v:textRect cx="69.8688" cy="945.871" width="139.74" height="139.738"/>
			<path d="M110.21 876 L29.53 876 L-10.81 945.87 L29.53 1015.74 L110.21 1015.74 L150.55 945.87 L110.21 876 Z" class="st7"/>
			<text x="15.14" y="951.27" class="st2" v:langID="1033"><v:paragraph v:horizAlign="1"/><v:tabList/>Data collection</text>		</g>
		<g id="shape9-19" v:mID="9" v:groupContext="shape" transform="translate(513.941,-437.725)">
			<title>Hexagon.209</title>
			<desc>DATA</desc>
			<v:userDefs>
				<v:ud v:nameU="visVersion" v:val="VT0(15):26"/>
			</v:userDefs>
			<v:textBlock v:margins="rect(4,4,4,4)" v:tabSpace="42.5197"/>
			<v:textRect cx="69.8688" cy="945.871" width="139.74" height="139.738"/>
			<path d="M110.21 876 L29.53 876 L-10.81 945.87 L29.53 1015.74 L110.21 1015.74 L150.55 945.87 L110.21 876 Z" class="st8"/>
			<text x="34.81" y="954.87" class="st9" v:langID="1033"><v:paragraph v:horizAlign="1"/><v:tabList/>DATA</text>		</g>
		<g id="shape10-22" v:mID="10" v:groupContext="shape" transform="translate(635.253,-647.489)">
			<title>Hexagon.10</title>
			<desc>APIs</desc>
			<v:userDefs>
				<v:ud v:nameU="visVersion" v:val="VT0(15):26"/>
			</v:userDefs>
			<v:textBlock v:margins="rect(4,4,4,4)" v:tabSpace="42.5197"/>
			<v:textRect cx="69.8688" cy="945.871" width="139.74" height="139.738"/>
			<path d="M110.21 876 L29.53 876 L-10.81 945.87 L29.53 1015.74 L110.21 1015.74 L150.55 945.87 L110.21 876 Z"
					class="st10"/>
			<text x="54.22" y="951.27" class="st2" v:langID="1033"><v:paragraph v:horizAlign="1"/><v:tabList/>APIs</text>		</g>
		<g id="shape11-25" v:mID="11" v:groupContext="shape" transform="translate(513.941,-718.014)">
			<title>Hexagon.11</title>
			<desc>Web-Scraping</desc>
			<v:userDefs>
				<v:ud v:nameU="visVersion" v:val="VT0(15):26"/>
			</v:userDefs>
			<v:textBlock v:margins="rect(4,4,4,4)" v:tabSpace="42.5197"/>
			<v:textRect cx="69.8688" cy="945.871" width="139.74" height="139.738"/>
			<path d="M110.21 876 L29.53 876 L-10.81 945.87 L29.53 1015.74 L110.21 1015.74 L150.55 945.87 L110.21 876 Z"
					class="st10"/>
			<text x="18.75" y="951.27" class="st2" v:langID="1033"><v:paragraph v:horizAlign="1"/><v:tabList/>Web-Scraping</text>		</g>
		<g id="shape12-28" v:mID="12" v:groupContext="shape" transform="translate(513.941,-857.752)">
			<title>Hexagon.12</title>
			<desc>Automated Web-Navigation</desc>
			<v:userDefs>
				<v:ud v:nameU="visVersion" v:val="VT0(15):26"/>
			</v:userDefs>
			<v:textBlock v:margins="rect(4,4,4,4)" v:tabSpace="42.5197"/>
			<v:textRect cx="69.8688" cy="945.871" width="139.74" height="139.738"/>
			<path d="M110.21 876 L29.53 876 L-10.81 945.87 L29.53 1015.74 L110.21 1015.74 L150.55 945.87 L110.21 876 Z"
					class="st10"/>
			<text x="6.45" y="940.47" class="st2" v:langID="1033"><v:paragraph v:horizAlign="1"/><v:tabList/>Automated Web-<tspan
						x="30.52" dy="1.2em" class="st11">Navigation</tspan></text>		</g>
		<g id="shape13-32" v:mID="13" v:groupContext="shape" transform="translate(271.421,-298.145)">
			<title>Hexagon.13</title>
			<desc>Data Dictionary</desc>
			<v:userDefs>
				<v:ud v:nameU="visVersion" v:val="VT0(15):26"/>
			</v:userDefs>
			<v:textBlock v:margins="rect(4,4,4,4)" v:tabSpace="42.5197"/>
			<v:textRect cx="69.8688" cy="945.871" width="139.74" height="139.738"/>
			<path d="M110.21 876 L29.53 876 L-10.81 945.87 L29.53 1015.74 L110.21 1015.74 L150.55 945.87 L110.21 876 Z" class="st6"/>
			<text x="13.18" y="951.27" class="st2" v:langID="1033"><v:paragraph v:horizAlign="1"/><v:tabList/>Data Dictionary</text>		</g>
		<g id="shape14-35" v:mID="14" v:groupContext="shape" transform="translate(756.24,-577.2)">
			<title>Hexagon.14</title>
			<desc>Create</desc>
			<v:userDefs>
				<v:ud v:nameU="visVersion" v:val="VT0(15):26"/>
			</v:userDefs>
			<v:textBlock v:margins="rect(4,4,4,4)" v:tabSpace="42.5197"/>
			<v:textRect cx="69.8688" cy="945.871" width="139.74" height="139.738"/>
			<path d="M110.21 876 L29.53 876 L-10.81 945.87 L29.53 1015.74 L110.21 1015.74 L150.55 945.87 L110.21 876 Z"
					class="st12"/>
			<text x="45.65" y="951.27" class="st2" v:langID="1033"><v:paragraph v:horizAlign="1"/><v:tabList/>Create</text>		</g>
		<g id="shape15-38" v:mID="15" v:groupContext="shape" transform="translate(392.471,-787.883)">
			<title>Hexagon.15</title>
			<desc>Excel</desc>
			<v:userDefs>
				<v:ud v:nameU="visVersion" v:val="VT0(15):26"/>
			</v:userDefs>
			<v:textBlock v:margins="rect(4,4,4,4)" v:tabSpace="42.5197"/>
			<v:textRect cx="69.8688" cy="945.871" width="139.74" height="139.738"/>
			<path d="M110.21 876 L29.53 876 L-10.81 945.87 L29.53 1015.74 L110.21 1015.74 L150.55 945.87 L110.21 876 Z"
					class="st10"/>
			<text x="51.23" y="951.27" class="st2" v:langID="1033"><v:paragraph v:horizAlign="1"/><v:tabList/>Excel</text>		</g>
		<g id="shape16-41" v:mID="16" v:groupContext="shape" transform="translate(635.253,-787.227)">
			<title>Hexagon.16</title>
			<desc>Optical Character Recognition</desc>
			<v:userDefs>
				<v:ud v:nameU="visVersion" v:val="VT0(15):26"/>
			</v:userDefs>
			<v:textBlock v:margins="rect(4,4,4,4)" v:tabSpace="42.5197"/>
			<v:textRect cx="69.8688" cy="945.871" width="139.74" height="139.738"/>
			<path d="M110.21 876 L29.53 876 L-10.81 945.87 L29.53 1015.74 L110.21 1015.74 L150.55 945.87 L110.21 876 Z"
					class="st10"/>
			<text x="6.16" y="940.47" class="st2" v:langID="1033"><v:paragraph v:horizAlign="1"/><v:tabList/>Optical Character <tspan
						x="26.37" dy="1.2em" class="st11">Recognition</tspan></text>		</g>
		<g id="shape17-45" v:mID="17" v:groupContext="shape" transform="translate(756.24,-857.41)">
			<title>Hexagon.17</title>
			<desc>PDF</desc>
			<v:userDefs>
				<v:ud v:nameU="visVersion" v:val="VT0(15):26"/>
			</v:userDefs>
			<v:textBlock v:margins="rect(4,4,4,4)" v:tabSpace="42.5197"/>
			<v:textRect cx="69.8688" cy="945.871" width="139.74" height="139.738"/>
			<path d="M110.21 876 L29.53 876 L-10.81 945.87 L29.53 1015.74 L110.21 1015.74 L150.55 945.87 L110.21 876 Z"
					class="st10"/>
			<text x="55.55" y="951.27" class="st2" v:langID="1033"><v:paragraph v:horizAlign="1"/><v:tabList/>PDF</text>		</g>
		<g id="shape18-48" v:mID="18" v:groupContext="shape" transform="translate(756.24,-717.358)">
			<title>Hexagon.18</title>
			<desc>Images</desc>
			<v:userDefs>
				<v:ud v:nameU="visVersion" v:val="VT0(15):26"/>
			</v:userDefs>
			<v:textBlock v:margins="rect(4,4,4,4)" v:tabSpace="42.5197"/>
			<v:textRect cx="69.8688" cy="945.871" width="139.74" height="139.738"/>
			<path d="M110.21 876 L29.53 876 L-10.81 945.87 L29.53 1015.74 L110.21 1015.74 L150.55 945.87 L110.21 876 Z"
					class="st10"/>
			<text x="43.87" y="951.27" class="st2" v:langID="1033"><v:paragraph v:horizAlign="1"/><v:tabList/>Images</text>		</g>
		<g id="shape19-51" v:mID="19" v:groupContext="shape" transform="translate(271.421,-577.62)">
			<title>Hexagon.19</title>
			<desc>Visio Process</desc>
			<v:userDefs>
				<v:ud v:nameU="visVersion" v:val="VT0(15):26"/>
			</v:userDefs>
			<v:textBlock v:margins="rect(4,4,4,4)" v:tabSpace="42.5197"/>
			<v:textRect cx="69.8688" cy="945.871" width="139.74" height="139.738"/>
			<path d="M110.21 876 L29.53 876 L-10.81 945.87 L29.53 1015.74 L110.21 1015.74 L150.55 945.87 L110.21 876 Z"
					class="st13"/>
			<text x="22.47" y="951.27" class="st2" v:langID="1033"><v:paragraph v:horizAlign="1"/><v:tabList/>Visio Process</text>		</g>
		<g id="shape20-54" v:mID="20" v:groupContext="shape" transform="translate(271.421,-437.948)">
			<title>Hexagon.20</title>
			<desc>PowerBI DashBoards</desc>
			<v:userDefs>
				<v:ud v:nameU="visVersion" v:val="VT0(15):26"/>
			</v:userDefs>
			<v:textBlock v:margins="rect(4,4,4,4)" v:tabSpace="42.5197"/>
			<v:textRect cx="69.8688" cy="945.871" width="139.74" height="139.738"/>
			<path d="M110.21 876 L29.53 876 L-10.81 945.87 L29.53 1015.74 L110.21 1015.74 L150.55 945.87 L110.21 876 Z"
					class="st13"/>
			<text x="39.26" y="940.47" class="st2" v:langID="1033"><v:paragraph v:horizAlign="1"/><v:tabList/>PowerBI <tspan
						x="26.43" dy="1.2em" class="st11">DashBoards</tspan></text>		</g>
		<g id="shape21-58" v:mID="21" v:groupContext="shape" transform="translate(392.471,-648.067)">
			<title>Hexagon.21</title>
			<desc>Telemetry / IoT Sensors</desc>
			<v:userDefs>
				<v:ud v:nameU="visVersion" v:val="VT0(15):26"/>
			</v:userDefs>
			<v:textBlock v:margins="rect(4,4,4,4)" v:tabSpace="42.5197"/>
			<v:textRect cx="69.8688" cy="945.871" width="139.74" height="139.738"/>
			<path d="M110.21 876 L29.53 876 L-10.81 945.87 L29.53 1015.74 L110.21 1015.74 L150.55 945.87 L110.21 876 Z"
					class="st10"/>
			<text x="13.62" y="940.47" class="st2" v:langID="1033"><v:paragraph v:horizAlign="1"/><v:tabList/>Telemetry / IoT <tspan
						x="41.6" dy="1.2em" class="st11">Sensors</tspan></text>		</g>
		<g id="shape22-62" v:mID="22" v:groupContext="shape" transform="translate(755.305,-437.463)">
			<title>Hexagon.22</title>
			<desc>Replace</desc>
			<v:userDefs>
				<v:ud v:nameU="visVersion" v:val="VT0(15):26"/>
			</v:userDefs>
			<v:textBlock v:margins="rect(4,4,4,4)" v:tabSpace="42.5197"/>
			<v:textRect cx="69.8688" cy="945.871" width="139.74" height="139.738"/>
			<path d="M110.21 876 L29.53 876 L-10.81 945.87 L29.53 1015.74 L110.21 1015.74 L150.55 945.87 L110.21 876 Z"
					class="st12"/>
			<text x="41.12" y="951.27" class="st2" v:langID="1033"><v:paragraph v:horizAlign="1"/><v:tabList/>Replace</text>		</g>
		<g id="shape23-65" v:mID="23" v:groupContext="shape" transform="translate(876.63,-507.332)">
			<title>Hexagon.23</title>
			<desc>Update</desc>
			<v:userDefs>
				<v:ud v:nameU="visVersion" v:val="VT0(15):26"/>
			</v:userDefs>
			<v:textBlock v:margins="rect(4,4,4,4)" v:tabSpace="42.5197"/>
			<v:textRect cx="69.8688" cy="945.871" width="139.74" height="139.738"/>
			<path d="M110.21 876 L29.53 876 L-10.81 945.87 L29.53 1015.74 L110.21 1015.74 L150.55 945.87 L110.21 876 Z"
					class="st12"/>
			<text x="42.83" y="951.27" class="st2" v:langID="1033"><v:paragraph v:horizAlign="1"/><v:tabList/>Update</text>		</g>
		<g id="shape24-68" v:mID="24" v:groupContext="shape" transform="translate(876.63,-367.594)">
			<title>Hexagon.24</title>
			<desc>Delete</desc>
			<v:userDefs>
				<v:ud v:nameU="visVersion" v:val="VT0(15):26"/>
			</v:userDefs>
			<v:textBlock v:margins="rect(4,4,4,4)" v:tabSpace="42.5197"/>
			<v:textRect cx="69.8688" cy="945.871" width="139.74" height="139.738"/>
			<path d="M110.21 876 L29.53 876 L-10.81 945.87 L29.53 1015.74 L110.21 1015.74 L150.55 945.87 L110.21 876 Z"
					class="st12"/>
			<text x="45.82" y="951.27" class="st2" v:langID="1033"><v:paragraph v:horizAlign="1"/><v:tabList/>Delete</text>		</g>
		<g id="shape25-71" v:mID="25" v:groupContext="shape" transform="translate(513.632,-18.5126)">
			<title>Hexagon.25</title>
			<desc>VBA</desc>
			<v:userDefs>
				<v:ud v:nameU="visVersion" v:val="VT0(15):26"/>
			</v:userDefs>
			<v:textBlock v:margins="rect(4,4,4,4)" v:tabSpace="42.5197"/>
			<v:textRect cx="69.8688" cy="945.871" width="139.74" height="139.738"/>
			<path d="M110.21 876 L29.53 876 L-10.81 945.87 L29.53 1015.74 L110.21 1015.74 L150.55 945.87 L110.21 876 Z"
					class="st14"/>
			<text x="54.66" y="951.27" class="st2" v:langID="1033"><v:paragraph v:horizAlign="1"/><v:tabList/>VBA</text>		</g>
		<g id="shape26-74" v:mID="26" v:groupContext="shape" transform="translate(392.681,-228.119)">
			<title>Hexagon.26</title>
			<desc>Platforms</desc>
			<v:userDefs>
				<v:ud v:nameU="visVersion" v:val="VT0(15):26"/>
			</v:userDefs>
			<v:textBlock v:margins="rect(4,4,4,4)" v:tabSpace="42.5197"/>
			<v:textRect cx="69.8688" cy="945.871" width="139.74" height="139.738"/>
			<path d="M110.21 876 L29.53 876 L-10.81 945.87 L29.53 1015.74 L110.21 1015.74 L150.55 945.87 L110.21 876 Z" class="st6"/>
			<text x="34.49" y="951.27" class="st2" v:langID="1033"><v:paragraph v:horizAlign="1"/><v:tabList/>Platforms</text>		</g>
		<g id="shape27-77" v:mID="27" v:groupContext="shape" transform="translate(755.305,-297.725)">
			<title>Hexagon.27</title>
			<desc>Azure Blob</desc>
			<v:userDefs>
				<v:ud v:nameU="visVersion" v:val="VT0(15):26"/>
			</v:userDefs>
			<v:textBlock v:margins="rect(4,4,4,4)" v:tabSpace="42.5197"/>
			<v:textRect cx="69.8688" cy="945.871" width="139.74" height="139.738"/>
			<path d="M110.21 876 L29.53 876 L-10.81 945.87 L29.53 1015.74 L110.21 1015.74 L150.55 945.87 L110.21 876 Z"
					class="st15"/>
			<text x="30.29" y="951.27" class="st2" v:langID="1033"><v:paragraph v:horizAlign="1"/><v:tabList/>Azure Blob</text>		</g>
		<g id="shape28-80" v:mID="28" v:groupContext="shape" transform="translate(634.833,-227.856)">
			<title>Hexagon.28</title>
			<desc>SQL Server</desc>
			<v:userDefs>
				<v:ud v:nameU="visVersion" v:val="VT0(15):26"/>
			</v:userDefs>
			<v:textBlock v:margins="rect(4,4,4,4)" v:tabSpace="42.5197"/>
			<v:textRect cx="69.8688" cy="945.871" width="139.74" height="139.738"/>
			<path d="M110.21 876 L29.53 876 L-10.81 945.87 L29.53 1015.74 L110.21 1015.74 L150.55 945.87 L110.21 876 Z"
					class="st15"/>
			<text x="30.43" y="951.27" class="st2" v:langID="1033"><v:paragraph v:horizAlign="1"/><v:tabList/>SQL Server</text>		</g>
		<g id="shape29-83" v:mID="29" v:groupContext="shape" transform="translate(755.305,-157.988)">
			<title>Hexagon.29</title>
			<desc>Dynamic Queries</desc>
			<v:userDefs>
				<v:ud v:nameU="visVersion" v:val="VT0(15):26"/>
			</v:userDefs>
			<v:textBlock v:margins="rect(4,4,4,4)" v:tabSpace="42.5197"/>
			<v:textRect cx="69.8688" cy="945.871" width="139.74" height="139.738"/>
			<path d="M110.21 876 L29.53 876 L-10.81 945.87 L29.53 1015.74 L110.21 1015.74 L150.55 945.87 L110.21 876 Z"
					class="st15"/>
			<text x="7.66" y="951.27" class="st2" v:langID="1033"><v:paragraph v:horizAlign="1"/><v:tabList/>Dynamic Queries</text>		</g>
		<g id="shape30-86" v:mID="30" v:groupContext="shape" transform="translate(271.106,-158.408)">
			<title>Hexagon.30</title>
			<desc>Enterprise Data Management</desc>
			<v:userDefs>
				<v:ud v:nameU="visVersion" v:val="VT0(15):26"/>
			</v:userDefs>
			<v:textBlock v:margins="rect(4,4,4,4)" v:tabSpace="42.5197"/>
			<v:textRect cx="69.8688" cy="945.871" width="139.74" height="139.738"/>
			<path d="M110.21 876 L29.53 876 L-10.81 945.87 L29.53 1015.74 L110.21 1015.74 L150.55 945.87 L110.21 876 Z" class="st6"/>
			<text x="12.98" y="940.47" class="st2" v:langID="1033"><v:paragraph v:horizAlign="1"/><v:tabList/>Enterprise Data <tspan
						x="20.7" dy="1.2em" class="st11">Management</tspan></text>		</g>
		<g id="shape31-90" v:mID="31" v:groupContext="shape" transform="translate(634.833,-88.3814)">
			<title>Hexagon.31</title>
			<desc>VLookUp</desc>
			<v:userDefs>
				<v:ud v:nameU="visVersion" v:val="VT0(15):26"/>
			</v:userDefs>
			<v:textBlock v:margins="rect(4,4,4,4)" v:tabSpace="42.5197"/>
			<v:textRect cx="69.8688" cy="945.871" width="139.74" height="139.738"/>
			<path d="M110.21 876 L29.53 876 L-10.81 945.87 L29.53 1015.74 L110.21 1015.74 L150.55 945.87 L110.21 876 Z"
					class="st14"/>
			<text x="36.89" y="951.27" class="st2" v:langID="1033"><v:paragraph v:horizAlign="1"/><v:tabList/>VLookUp</text>		</g>
		<g id="shape32-93" v:mID="32" v:groupContext="shape" transform="translate(513.757,-158.408)">
			<title>Hexagon.32</title>
			<desc>Data Governance</desc>
			<v:userDefs>
				<v:ud v:nameU="visVersion" v:val="VT0(15):26"/>
			</v:userDefs>
			<v:textBlock v:margins="rect(4,4,4,4)" v:tabSpace="42.5197"/>
			<v:textRect cx="69.8688" cy="945.871" width="139.74" height="139.738"/>
			<path d="M110.21 876 L29.53 876 L-10.81 945.87 L29.53 1015.74 L110.21 1015.74 L150.55 945.87 L110.21 876 Z"
					class="st14"/>
			<text x="6.5" y="951.27" class="st2" v:langID="1033"><v:paragraph v:horizAlign="1"/><v:tabList/>Data Governance</text>		</g>
		<g id="shape33-96" v:mID="33" v:groupContext="shape" transform="translate(876.63,-228.276)">
			<title>Hexagon.33</title>
			<desc>RDBMS</desc>
			<v:userDefs>
				<v:ud v:nameU="visVersion" v:val="VT0(15):26"/>
			</v:userDefs>
			<v:textBlock v:margins="rect(4,4,4,4)" v:tabSpace="42.5197"/>
			<v:textRect cx="69.8688" cy="945.871" width="139.74" height="139.738"/>
			<path d="M110.21 876 L29.53 876 L-10.81 945.87 L29.53 1015.74 L110.21 1015.74 L150.55 945.87 L110.21 876 Z"
					class="st15"/>
			<text x="42.72" y="951.27" class="st2" v:langID="1033"><v:paragraph v:horizAlign="1"/><v:tabList/>RDBMS</text>		</g>
		<g id="shape34-99" v:mID="34" v:groupContext="shape" transform="translate(876.63,-88.1188)">
			<title>Hexagon.34</title>
			<desc>Schemas</desc>
			<v:userDefs>
				<v:ud v:nameU="visVersion" v:val="VT0(15):26"/>
			</v:userDefs>
			<v:textBlock v:margins="rect(4,4,4,4)" v:tabSpace="42.5197"/>
			<v:textRect cx="69.8688" cy="945.871" width="139.74" height="139.738"/>
			<path d="M110.21 876 L29.53 876 L-10.81 945.87 L29.53 1015.74 L110.21 1015.74 L150.55 945.87 L110.21 876 Z"
					class="st15"/>
			<text x="37.7" y="951.27" class="st2" v:langID="1033"><v:paragraph v:horizAlign="1"/><v:tabList/>Schemas</text>		</g>
		<g id="shape35-102" v:mID="35" v:groupContext="shape" transform="translate(149.531,-507.752)">
			<title>Hexagon.35</title>
			<desc>R-Studio Graphics</desc>
			<v:userDefs>
				<v:ud v:nameU="visVersion" v:val="VT0(15):26"/>
			</v:userDefs>
			<v:textBlock v:margins="rect(4,4,4,4)" v:tabSpace="42.5197"/>
			<v:textRect cx="69.8688" cy="945.871" width="139.74" height="139.738"/>
			<path d="M110.21 876 L29.53 876 L-10.81 945.87 L29.53 1015.74 L110.21 1015.74 L150.55 945.87 L110.21 876 Z"
					class="st13"/>
			<text x="4.8" y="951.27" class="st2" v:langID="1033"><v:paragraph v:horizAlign="1"/><v:tabList/>R-Studio Graphics</text>		</g>
		<g id="shape36-105" v:mID="36" v:groupContext="shape" transform="translate(149.531,-647.798)">
			<title>Hexagon.36</title>
			<desc>Frequency Distributions</desc>
			<v:userDefs>
				<v:ud v:nameU="visVersion" v:val="VT0(15):26"/>
			</v:userDefs>
			<v:textBlock v:margins="rect(4,4,4,4)" v:tabSpace="42.5197"/>
			<v:textRect cx="69.8688" cy="945.871" width="139.74" height="139.738"/>
			<path d="M110.21 876 L29.53 876 L-10.81 945.87 L29.53 1015.74 L110.21 1015.74 L150.55 945.87 L110.21 876 Z"
					class="st13"/>
			<text x="31.57" y="940.47" class="st2" v:langID="1033"><v:paragraph v:horizAlign="1"/><v:tabList/>Frequency <tspan
						x="23" dy="1.2em" class="st11">Distributions</tspan></text>		</g>
		<g id="shape37-109" v:mID="37" v:groupContext="shape" transform="translate(29.0587,-577.775)">
			<title>Hexagon.37</title>
			<desc>Stata ANOVA</desc>
			<v:userDefs>
				<v:ud v:nameU="visVersion" v:val="VT0(15):26"/>
			</v:userDefs>
			<v:textBlock v:margins="rect(4,4,4,4)" v:tabSpace="42.5197"/>
			<v:textRect cx="69.8688" cy="945.871" width="139.74" height="139.738"/>
			<path d="M110.21 876 L29.53 876 L-10.81 945.87 L29.53 1015.74 L110.21 1015.74 L150.55 945.87 L110.21 876 Z"
					class="st13"/>
			<text x="21.76" y="951.27" class="st2" v:langID="1033"><v:paragraph v:horizAlign="1"/><v:tabList/>Stata ANOVA</text>		</g>
		<g id="shape38-112" v:mID="38" v:groupContext="shape" transform="translate(149.531,-368.014)">
			<title>Hexagon.38</title>
			<desc>Process Documentation</desc>
			<v:userDefs>
				<v:ud v:nameU="visVersion" v:val="VT0(15):26"/>
			</v:userDefs>
			<v:textBlock v:margins="rect(4,4,4,4)" v:tabSpace="42.5197"/>
			<v:textRect cx="69.8688" cy="945.871" width="139.74" height="139.738"/>
			<path d="M110.21 876 L29.53 876 L-10.81 945.87 L29.53 1015.74 L110.21 1015.74 L150.55 945.87 L110.21 876 Z" class="st6"/>
			<text x="42.01" y="940.47" class="st2" v:langID="1033"><v:paragraph v:horizAlign="1"/><v:tabList/>Process <tspan
						x="12.78" dy="1.2em" class="st11">Documentation</tspan></text>		</g>
		<g id="shape39-116" v:mID="39" v:groupContext="shape" transform="translate(149.531,-228.276)">
			<title>Hexagon.39</title>
			<desc>Process Mapping</desc>
			<v:userDefs>
				<v:ud v:nameU="visVersion" v:val="VT0(15):26"/>
			</v:userDefs>
			<v:textBlock v:margins="rect(4,4,4,4)" v:tabSpace="42.5197"/>
			<v:textRect cx="69.8688" cy="945.871" width="139.74" height="139.738"/>
			<path d="M110.21 876 L29.53 876 L-10.81 945.87 L29.53 1015.74 L110.21 1015.74 L150.55 945.87 L110.21 876 Z" class="st6"/>
			<text x="7.48" y="951.27" class="st2" v:langID="1033"><v:paragraph v:horizAlign="1"/><v:tabList/>Process Mapping</text>		</g>
		<g id="shape40-119" v:mID="40" v:groupContext="shape" transform="translate(998.088,-158.198)">
			<title>Hexagon.40</title>
			<desc>SQL Connectors</desc>
			<v:userDefs>
				<v:ud v:nameU="visVersion" v:val="VT0(15):26"/>
			</v:userDefs>
			<v:textBlock v:margins="rect(4,4,4,4)" v:tabSpace="42.5197"/>
			<v:textRect cx="69.8688" cy="945.871" width="139.74" height="139.738"/>
			<path d="M110.21 876 L29.53 876 L-10.81 945.87 L29.53 1015.74 L110.21 1015.74 L150.55 945.87 L110.21 876 Z"
					class="st15"/>
			<text x="12.16" y="951.27" class="st2" v:langID="1033"><v:paragraph v:horizAlign="1"/><v:tabList/>SQL Connectors</text>		</g>
		<g id="shape41-122" v:mID="41" v:groupContext="shape" transform="translate(755.305,-18.25)">
			<title>Hexagon.41</title>
			<desc>Data Design</desc>
			<v:userDefs>
				<v:ud v:nameU="visVersion" v:val="VT0(15):26"/>
			</v:userDefs>
			<v:textBlock v:margins="rect(4,4,4,4)" v:tabSpace="42.5197"/>
			<v:textRect cx="69.8688" cy="945.871" width="139.74" height="139.738"/>
			<path d="M110.21 876 L29.53 876 L-10.81 945.87 L29.53 1015.74 L110.21 1015.74 L150.55 945.87 L110.21 876 Z"
					class="st15"/>
			<text x="26.1" y="951.27" class="st2" v:langID="1033"><v:paragraph v:horizAlign="1"/><v:tabList/>Data Design</text>		</g>
		<g id="shape42-125" v:mID="42" v:groupContext="shape" transform="translate(271.001,-717.975)">
			<title>Hexagon.42</title>
			<desc>Live Charts</desc>
			<v:userDefs>
				<v:ud v:nameU="visVersion" v:val="VT0(15):26"/>
			</v:userDefs>
			<v:textBlock v:margins="rect(4,4,4,4)" v:tabSpace="42.5197"/>
			<v:textRect cx="69.8688" cy="945.871" width="139.74" height="139.738"/>
			<path d="M110.21 876 L29.53 876 L-10.81 945.87 L29.53 1015.74 L110.21 1015.74 L150.55 945.87 L110.21 876 Z"
					class="st13"/>
			<text x="29.93" y="951.27" class="st2" v:langID="1033"><v:paragraph v:horizAlign="1"/><v:tabList/>Live Charts</text>		</g>
		<g id="shape44-128" v:mID="44" v:groupContext="shape" transform="translate(392.431,-88.3814)">
			<title>Hexagon.44</title>
			<desc>Active Directory</desc>
			<v:userDefs>
				<v:ud v:nameU="visVersion" v:val="VT0(15):26"/>
			</v:userDefs>
			<v:textBlock v:margins="rect(4,4,4,4)" v:tabSpace="42.5197"/>
			<v:textRect cx="69.8688" cy="945.871" width="139.74" height="139.738"/>
			<path d="M110.21 876 L29.53 876 L-10.81 945.87 L29.53 1015.74 L110.21 1015.74 L150.55 945.87 L110.21 876 Z"
					class="st14"/>
			<text x="11.2" y="951.27" class="st2" v:langID="1033"><v:paragraph v:horizAlign="1"/><v:tabList/>Active Directory</text>		</g>
		<g id="shape45-131" v:mID="45" v:groupContext="shape" transform="translate(149.531,-787.535)">
			<title>Hexagon.45</title>
			<desc>Python Plots</desc>
			<v:userDefs>
				<v:ud v:nameU="visVersion" v:val="VT0(15):26"/>
			</v:userDefs>
			<v:textBlock v:margins="rect(4,4,4,4)" v:tabSpace="42.5197"/>
			<v:textRect cx="69.8688" cy="945.871" width="139.74" height="139.738"/>
			<path d="M110.21 876 L29.53 876 L-10.81 945.87 L29.53 1015.74 L110.21 1015.74 L150.55 945.87 L110.21 876 Z"
					class="st13"/>
			<text x="23.9" y="951.27" class="st2" v:langID="1033"><v:paragraph v:horizAlign="1"/><v:tabList/>Python Plots</text>		</g>
		<g id="shape46-134" v:mID="46" v:groupContext="shape" transform="translate(998.088,-297.725)">
			<title>Hexagon.46</title>
			<desc>Schedules</desc>
			<v:userDefs>
				<v:ud v:nameU="visVersion" v:val="VT0(15):26"/>
			</v:userDefs>
			<v:textBlock v:margins="rect(4,4,4,4)" v:tabSpace="42.5197"/>
			<v:textRect cx="69.8688" cy="945.871" width="139.74" height="139.738"/>
			<path d="M110.21 876 L29.53 876 L-10.81 945.87 L29.53 1015.74 L110.21 1015.74 L150.55 945.87 L110.21 876 Z"
					class="st12"/>
			<text x="33.2" y="951.27" class="st2" v:langID="1033"><v:paragraph v:horizAlign="1"/><v:tabList/>Schedules</text>		</g>
	</g>
</svg>
