<?xml version="1.0" encoding="UTF-8" standalone="no"?>
<!DOCTYPE svg PUBLIC "-//W3C//DTD SVG 1.1//EN" "http://www.w3.org/Graphics/SVG/1.1/DTD/svg11.dtd">
<!-- Generated by Microsoft Visio, SVG Export visio_svg_save.svg Page-1 -->
<svg xmlns="http://www.w3.org/2000/svg" xmlns:xlink="http://www.w3.org/1999/xlink" xmlns:ev="http://www.w3.org/2001/xml-events"
		xmlns:v="http://schemas.microsoft.com/visio/2003/SVGExtensions/" width="11.6929in" height="8.26772in"
		viewBox="0 0 841.89 595.276" xml:space="preserve" color-interpolation-filters="sRGB" class="st8">
	<v:documentProperties v:langID="1033" v:metric="true" v:viewMarkup="false">
		<v:userDefs>
			<v:ud v:nameU="msvSubprocessMaster" v:prompt="" v:val="VT4(Rectangle)"/>
			<v:ud v:nameU="msvNoAutoConnect" v:val="VT0(1):26"/>
		</v:userDefs>
	</v:documentProperties>

	<style type="text/css">
	<![CDATA[
		.st1 {fill:#ff3300;fill-opacity:0.5;stroke:#000000;stroke-width:0.25}
		.st2 {fill:#ff9933;fill-opacity:0.5;stroke:#000000;stroke-width:0.25}
		.st3 {fill:#33ccff;fill-opacity:0.5;stroke:#000000;stroke-width:0.25}
		.st4 {fill:#9966ff;fill-opacity:0.5;stroke:#000000;stroke-width:0.25}
		.st5 {fill:#ff6699;fill-opacity:0.5;stroke:#000000;stroke-width:0.25}
		.st6 {fill:#92d050;fill-opacity:0.5;stroke:#000000;stroke-width:0.25}
		.st7 {fill:#ffff00;fill-opacity:0.5;stroke:#000000;stroke-width:0.25}
		.st8 {fill:none;fill-rule:evenodd;font-size:12px;overflow:visible;stroke-linecap:square;stroke-miterlimit:3}
	]]>
	</style>

	<g v:mID="0" v:index="1" v:groupContext="foregroundPage">
		<v:userDefs>
			<v:ud v:nameU="msvThemeOrder" v:val="VT0(0):26"/>
		</v:userDefs>
		<title>Page-1</title>
		<v:pageProperties v:drawingScale="0.0393701" v:pageScale="0.0393701" v:drawingUnits="24" v:shadowOffsetX="8.50394"
				v:shadowOffsetY="-8.50394"/>
		<g id="shape1-1" v:mID="1" v:groupContext="shape" transform="translate(417.035,-287.669)">
			<title>Circle.188</title>
			<v:userDefs>
				<v:ud v:nameU="visVersion" v:val="VT0(15):26"/>
			</v:userDefs>
			<path d="M0 519.77 A75.5057 75.5057 0 1 1 151.01 519.77 A75.5057 75.5057 0 0 1 0 519.77 Z" class="st1"/>
		</g>
		<g id="shape2-3" v:mID="2" v:groupContext="shape" transform="translate(278.107,-193.415)">
			<title>Circle.177</title>
			<v:userDefs>
				<v:ud v:nameU="visVersion" v:val="VT0(15):26"/>
			</v:userDefs>
			<path d="M0 519.77 A75.5057 75.5057 0 1 1 151.01 519.77 A75.5057 75.5057 0 0 1 0 519.77 Z" class="st2"/>
		</g>
		<g id="shape3-5" v:mID="3" v:groupContext="shape" transform="translate(368.333,-188.508)">
			<title>Circle</title>
			<v:userDefs>
				<v:ud v:nameU="visVersion" v:val="VT0(15):26"/>
			</v:userDefs>
			<path d="M0 519.77 A75.5057 75.5057 0 1 1 151.01 519.77 A75.5057 75.5057 0 0 1 0 519.77 Z" class="st3"/>
		</g>
		<g id="shape4-7" v:mID="4" v:groupContext="shape" transform="translate(206.629,-282.762)">
			<title>Circle.185</title>
			<v:userDefs>
				<v:ud v:nameU="visVersion" v:val="VT0(15):26"/>
			</v:userDefs>
			<path d="M0 519.77 A75.5057 75.5057 0 1 1 151.01 519.77 A75.5057 75.5057 0 0 1 0 519.77 Z" class="st4"/>
		</g>
		<g id="shape5-9" v:mID="5" v:groupContext="shape" transform="translate(256.209,-372.11)">
			<title>Circle.175</title>
			<v:userDefs>
				<v:ud v:nameU="visVersion" v:val="VT0(15):26"/>
			</v:userDefs>
			<path d="M0 519.77 A75.5057 75.5057 0 1 1 151.01 519.77 A75.5057 75.5057 0 0 1 0 519.77 Z" class="st5"/>
		</g>
		<g id="shape6-11" v:mID="6" v:groupContext="shape" transform="translate(312.938,-282.762)">
			<title>Circle.176</title>
			<v:userDefs>
				<v:ud v:nameU="visVersion" v:val="VT0(15):26"/>
			</v:userDefs>
			<path d="M0 519.77 A75.5057 75.5057 0 1 1 151.01 519.77 A75.5057 75.5057 0 0 1 0 519.77 Z" class="st6"/>
		</g>
		<g id="shape7-13" v:mID="7" v:groupContext="shape" transform="translate(363.426,-372.11)">
			<title>Circle.213</title>
			<v:userDefs>
				<v:ud v:nameU="visVersion" v:val="VT0(15):26"/>
			</v:userDefs>
			<path d="M0 519.77 A75.5057 75.5057 0 1 1 151.01 519.77 A75.5057 75.5057 0 0 1 0 519.77 Z" class="st7"/>
		</g>
	</g>
</svg>
