<?xml version="1.0" encoding="UTF-8" standalone="no"?>
<!DOCTYPE svg PUBLIC "-//W3C//DTD SVG 1.1//EN" "http://www.w3.org/Graphics/SVG/1.1/DTD/svg11.dtd">
<!-- Generated by Microsoft Visio, SVG Export visio_venn_frag.svg Page-1 -->
<svg xmlns="http://www.w3.org/2000/svg" xmlns:xlink="http://www.w3.org/1999/xlink" xmlns:ev="http://www.w3.org/2001/xml-events"
		xmlns:v="http://schemas.microsoft.com/visio/2003/SVGExtensions/" width="8.88791in" height="8.28838in"
		viewBox="0 0 639.929 596.763" xml:space="preserve" color-interpolation-filters="sRGB" class="st2">
	<v:documentProperties v:langID="1033" v:metric="true" v:viewMarkup="false">
		<v:userDefs>
			<v:ud v:nameU="msvSubprocessMaster" v:prompt="" v:val="VT4(Rectangle)"/>
			<v:ud v:nameU="msvNoAutoConnect" v:val="VT0(1):26"/>
		</v:userDefs>
	</v:documentProperties>

	<style type="text/css">
	<![CDATA[
		.st1 {fill:#ffff00;fill-opacity:0.5;stroke:#000000;stroke-width:0.25}
		.st2 {fill:none;fill-rule:evenodd;font-size:12px;overflow:visible;stroke-linecap:square;stroke-miterlimit:3}
	]]>
	</style>

	<g v:mID="0" v:index="1" v:groupContext="foregroundPage">
		<v:userDefs>
			<v:ud v:nameU="msvThemeOrder" v:val="VT0(0):26"/>
		</v:userDefs>
		<title>Page-1</title>
		<v:pageProperties v:drawingScale="0.0393701" v:pageScale="0.0393701" v:drawingUnits="24" v:shadowOffsetX="8.50394"
				v:shadowOffsetY="-8.50394"/>
		<g id="shape54-1" v:mID="54" v:groupContext="shape" transform="translate(125.657,-332.867)">
			<title>Sheet.54</title>
			<path d="M105.88 546.54 A120.527 120.527 -180 0 0 -0 511.4 A120.527 120.527 -180 0 0 76.74 596.76 A120.527 120.527 0
						 0 1 105.88 546.54 Z" class="st1"/>
		</g>
		<g id="shape55-3" v:mID="55" v:groupContext="shape" transform="translate(273.281,-50.9417)">
			<title>Sheet.55</title>
			<path d="M90.66 459.93 A120.527 120.527 0 0 1 5.96 462.52 A120.527 120.527 -180 0 0 0 499.94 A120.527 120.527 -180 0
						 0 48.75 596.76 A120.527 120.527 -180 0 0 97.5 499.94 A120.527 120.527 -180 0 0 90.66 459.93 Z" class="st1"/>
		</g>
		<g id="shape56-5" v:mID="56" v:groupContext="shape" transform="translate(279.236,-178.729)">
			<title>Sheet.56</title>
			<path d="M42.79 530.91 A120.527 120.527 -180 0 0 0 590.31 A120.527 120.527 -180 0 0 84.71 587.72 A120.527 120.527 -180
						 0 0 42.79 530.91 Z" class="st1"/>
		</g>
		<g id="shape57-7" v:mID="57" v:groupContext="shape" transform="translate(322.029,-187.772)">
			<title>Sheet.57</title>
			<path d="M-0 539.95 A120.527 120.527 0 0 1 41.91 596.76 A120.527 120.527 -180 0 0 84.34 567.39 A120.527 120.527 0 0 1
						 56.35 517.24 A120.527 120.527 -180 0 0 -0 539.95 Z" class="st1"/>
		</g>
		<g id="shape58-9" v:mID="58" v:groupContext="shape" transform="translate(231.541,-185.18)">
			<title>Sheet.58</title>
			<path d="M29.75 514.16 A120.527 120.527 0 0 1 -0 566.52 A120.527 120.527 -180 0 0 47.7 596.76 A120.527 120.527 0 0 1
						 90.49 537.36 A120.527 120.527 -180 0 0 29.75 514.16 Z" class="st1"/>
		</g>
		<g id="shape59-11" v:mID="59" v:groupContext="shape" transform="translate(129.724,-27.237)">
			<title>Sheet.59</title>
			<path d="M4.18 444.76 A120.527 120.527 -180 0 0 0 476.24 A120.527 120.527 -180 0 0 192.31 573.06 A120.527 120.527 0 0
						 1 143.56 476.24 A120.527 120.527 0 0 1 149.51 438.82 A120.527 120.527 0 0 1 101.82 408.57 A120.527 120.527
						 0 0 1 4.18 444.76 Z" class="st1"/>
		</g>
		<g id="shape60-13" v:mID="60" v:groupContext="shape" transform="translate(204.446,-215.426)">
			<title>Sheet.60</title>
			<path d="M0 552.94 A120.527 120.527 -180 0 0 27.09 596.76 A120.527 120.527 -180 0 0 56.84 544.41 A120.527 120.527 -180
						 0 0 -0 552.94 Z" class="st1"/>
		</g>
		<g id="shape61-15" v:mID="61" v:groupContext="shape" transform="translate(133.906,-178.729)">
			<title>Sheet.61</title>
			<path d="M70.54 516.24 A120.527 120.527 -180 0 0 0 596.26 A120.527 120.527 -180 0 0 97.64 560.07 A120.527 120.527 0 0
						 1 70.54 516.24 Z" class="st1"/>
		</g>
		<g id="shape62-17" v:mID="62" v:groupContext="shape" transform="translate(24.4156,-179.236)">
			<title>Sheet.62</title>
			<path d="M180.03 516.75 A120.527 120.527 0 0 1 173.2 476.74 A120.527 120.527 0 0 1 177.98 443.13 A120.527 120.527 0 0
						 1 101.24 357.77 A120.527 120.527 -180 0 0 -0 476.74 A120.527 120.527 -180 0 0 109.49 596.76 A120.527 120.527
						 0 0 1 180.03 516.75 Z" class="st1"/>
		</g>
		<g id="shape63-19" v:mID="63" v:groupContext="shape" transform="translate(202.394,-325.876)">
			<title>Sheet.63</title>
			<path d="M59.74 595.21 A120.527 120.527 -180 0 0 29.15 539.55 A120.527 120.527 -180 0 0 0 589.77 A120.527 120.527 -180
						 0 0 59.74 595.21 Z" class="st1"/>
		</g>
		<g id="shape64-21" v:mID="64" v:groupContext="shape" transform="translate(197.612,-259.248)">
			<title>Sheet.64</title>
			<path d="M64.52 528.58 A120.527 120.527 0 0 1 4.78 523.14 A120.527 120.527 -180 0 0 0 556.75 A120.527 120.527 -180 0
						 0 6.83 596.76 A120.527 120.527 0 0 1 63.67 588.23 A120.527 120.527 -180 0 0 67.86 556.75 A120.527 120.527
						 -180 0 0 64.52 528.58 Z" class="st1"/>
		</g>
		<g id="shape65-23" v:mID="65" v:groupContext="shape" transform="translate(378.379,-217.141)">
			<title>Sheet.65</title>
			<path d="M54.33 552.07 A120.527 120.527 -180 0 0 -0 546.61 A120.527 120.527 -180 0 0 27.99 596.76 A120.527 120.527 -180
						 0 0 54.33 552.07 Z" class="st1"/>
		</g>
		<g id="shape66-25" v:mID="66" v:groupContext="shape" transform="translate(406.365,-178.729)">
			<title>Sheet.66</title>
			<path d="M103.66 595.77 A120.527 120.527 -180 0 0 26.35 513.65 A120.527 120.527 0 0 1 0 558.35 A120.527 120.527 -180
						 0 0 103.66 595.77 Z" class="st1"/>
		</g>
		<g id="shape67-27" v:mID="67" v:groupContext="shape" transform="translate(322.029,-27.237)">
			<title>Sheet.67</title>
			<path d="M187.99 444.28 A120.527 120.527 0 0 1 84.34 406.86 A120.527 120.527 0 0 1 41.91 436.23 A120.527 120.527 0 0
						 1 48.75 476.24 A120.527 120.527 0 0 1 0 573.06 A120.527 120.527 -180 0 0 192.31 476.24 A120.527 120.527
						 -180 0 0 187.99 444.28 Z" class="st1"/>
		</g>
		<g id="shape68-29" v:mID="68" v:groupContext="shape" transform="translate(278.028,-352.439)">
			<title>Sheet.68</title>
			<path d="M40.3 596.76 A120.527 120.527 -180 0 0 80.56 536.41 A120.527 120.527 -180 0 0 -0 536.29 A120.527 120.527 -180
						 0 0 40.3 596.76 Z" class="st1"/>
		</g>
		<g id="shape69-31" v:mID="69" v:groupContext="shape" transform="translate(231.541,-327.429)">
			<title>Sheet.69</title>
			<path d="M86.79 571.75 A120.527 120.527 0 0 1 46.49 511.28 A120.527 120.527 -180 0 0 0 541.11 A120.527 120.527 0 0 1
						 30.59 596.76 A120.527 120.527 -180 0 0 86.79 571.75 Z" class="st1"/>
		</g>
		<g id="shape70-33" v:mID="70" v:groupContext="shape" transform="translate(318.326,-327.011)">
			<title>Sheet.70</title>
			<path d="M58.98 596.76 A120.527 120.527 0 0 1 88.04 542.4 A120.527 120.527 -180 0 0 40.26 510.98 A120.527 120.527 0 0
						 1 0 571.34 A120.527 120.527 -180 0 0 58.98 596.76 Z" class="st1"/>
		</g>
		<g id="shape71-35" v:mID="71" v:groupContext="shape" transform="translate(261.287,-244.586)">
			<title>Sheet.71</title>
			<path d="M116.02 514.34 A120.527 120.527 0 0 1 57.04 488.91 A120.527 120.527 0 0 1 0.84 513.92 A120.527 120.527 0 0 1
						 4.18 542.09 A120.527 120.527 0 0 1 0 573.56 A120.527 120.527 0 0 1 60.74 596.76 A120.527 120.527 0 0 1 117.09
						 574.05 A120.527 120.527 0 0 1 112.78 542.09 A120.527 120.527 0 0 1 116.02 514.34 Z" class="st1"/>
		</g>
		<g id="shape72-37" v:mID="72" v:groupContext="shape" transform="translate(377.304,-325.876)">
			<title>Sheet.72</title>
			<path d="M56.62 589.89 A120.527 120.527 -180 0 0 29.06 541.27 A120.527 120.527 -180 0 0 0 595.63 A120.527 120.527 -180
						 0 0 56.62 589.89 Z" class="st1"/>
		</g>
		<g id="shape73-39" v:mID="73" v:groupContext="shape" transform="translate(374.065,-261.839)">
			<title>Sheet.73</title>
			<path d="M59.85 525.86 A120.527 120.527 0 0 1 3.24 531.59 A120.527 120.527 -180 0 0 0 559.35 A120.527 120.527 -180 0
						 0 4.31 591.3 A120.527 120.527 0 0 1 58.65 596.76 A120.527 120.527 -180 0 0 64.6 559.35 A120.527 120.527
						 -180 0 0 59.85 525.86 Z" class="st1"/>
		</g>
		<g id="shape74-41" v:mID="74" v:groupContext="shape" transform="translate(122.318,-383.086)">
			<title>Sheet.74</title>
			<path d="M196.01 439.48 A120.527 120.527 -180 0 0 0 533.45 A120.527 120.527 -180 0 0 3.34 561.62 A120.527 120.527 0 0
						 1 109.22 596.76 A120.527 120.527 0 0 1 155.71 566.94 A120.527 120.527 0 0 1 150.96 533.45 A120.527 120.527
						 0 0 1 196.01 439.48 Z" class="st1"/>
		</g>
		<g id="shape75-43" v:mID="75" v:groupContext="shape" transform="translate(273.281,-412.792)">
			<title>Sheet.75</title>
			<path d="M45.05 469.19 A120.527 120.527 -180 0 0 0 563.15 A120.527 120.527 -180 0 0 4.75 596.64 A120.527 120.527 0 0
						 1 85.31 596.76 A120.527 120.527 -180 0 0 90.09 563.15 A120.527 120.527 -180 0 0 45.05 469.19 Z"
					class="st1"/>
		</g>
		<g id="shape76-45" v:mID="76" v:groupContext="shape" transform="translate(406.365,-332.746)">
			<title>Sheet.76</title>
			<path d="M104.73 510.86 A120.527 120.527 -180 0 0 -0 548.14 A120.527 120.527 0 0 1 27.55 596.76 A120.527 120.527 -180
						 0 0 104.73 510.86 Z" class="st1"/>
		</g>
		<g id="shape77-47" v:mID="77" v:groupContext="shape" transform="translate(318.326,-381.371)">
			<title>Sheet.77</title>
			<path d="M192.77 559.49 A120.527 120.527 -180 0 0 196.01 531.73 A120.527 120.527 -180 0 0 -0 437.77 A120.527 120.527
						 0 0 1 45.05 531.73 A120.527 120.527 0 0 1 40.26 565.34 A120.527 120.527 0 0 1 88.04 596.76 A120.527 120.527
						 0 0 1 192.77 559.49 Z" class="st1"/>
		</g>
		<g id="shape78-49" v:mID="78" v:groupContext="shape" transform="translate(432.711,-179.721)">
			<title>Sheet.78</title>
			<path d="M78.38 357.84 A120.527 120.527 0 0 1 1.21 443.74 A120.527 120.527 0 0 1 5.96 477.23 A120.527 120.527 0 0 1 0
						 514.64 A120.527 120.527 0 0 1 77.31 596.76 A120.527 120.527 -180 0 0 182.41 477.23 A120.527 120.527 -180
						 0 0 78.38 357.84 Z" class="st1"/>
		</g>
	</g>
</svg>
